<?xml version="1.0" encoding="UTF-8"?><svg id="b" xmlns="http://www.w3.org/2000/svg" width="282.784" height="294.766" viewBox="0 0 282.784 294.766"><defs><style>.d{fill:#211715;}.d,.e,.f,.g,.h{stroke-width:0px;}.e{fill:#645d5c;}.f{fill:#fff;}.g{fill:#3d8dcc;}.h{fill:#c6c6c6;}</style></defs><g id="c"><path class="f" d="M188.056,72.011c1.375-1.321,3.228-1.818,4.813-1.762,3.45.122,4.918,1.988,5.55,3.083,1.886,3.271,1.806,9.297.54,13.026-.896,2.641-2.365,6.68-5.905,9.577-1.459,1.194-3.606,1.98-5.659,1.633,0,0-.197-.033-.543-.092-.651,2.152-1.456,4.261-1.947,5.285-1.303,3.535-7.943,15.096-16.656,21.213v3.161c-4.798,3.719-12.191,9.454-21.045,15.221h-3.479c-8.853-5.768-16.247-11.502-21.045-15.221v-3.173c-3.204-2.112-6.192-4.918-9.074-8.368-5.1-6.104-8.004-12.679-9.607-18.125-2.188.562-4.554-.251-6.123-1.535-3.54-2.897-5.009-6.936-5.905-9.577-1.266-3.729-1.346-9.755.54-13.026.632-1.096,2.1-2.962,5.55-3.083,1.585-.056,3.438.44,4.813,1.762,0,0-10.496-44.547,44.547-44.547s40.633,44.547,40.633,44.547Z"/><path class="d" d="M20.465,266.573c2.664,0,5.327,0,7.991,0,6.428,0,12.856,0,19.283,0,9.279,0,18.557,0,27.836,0,11.216,0,22.432,0,33.648,0,12.24,0,24.48,0,36.72,0,12.351,0,24.701,0,37.052,0,11.548,0,23.095,0,34.643,0,9.832,0,19.663,0,29.495,0,7.202,0,14.404,0,21.606,0,3.659,0,7.318,0,10.977,0,.25,0,.5,0,.75,0,3.089,0,3.094-4.8,0-4.8-2.668,0-5.336,0-8.004,0-6.431,0-12.862,0-19.294,0-9.281,0-18.562,0-27.843,0-11.217,0-22.435,0-33.652,0-12.241,0-24.481,0-36.722,0-12.35,0-24.7,0-37.051,0-11.546,0-23.093,0-34.639,0-9.829,0-19.659,0-29.488,0-7.199,0-14.398,0-21.596,0-3.655,0-7.31,0-10.965,0-.249,0-.498,0-.747,0-3.089,0-3.094,4.8,0,4.8h0Z"/><path class="f" d="M156.16,136.223c-2.76,1.978-5.763,4.054-8.956,6.134h-3.479c-8.853-5.768-16.247-11.502-21.045-15.221-.789-.612-1.911-.263-2.265.687-.52,1.391-1.709,4.479-2.765,7.213-11.928,2.222-35.493,10.102-47.037,22.894l-38.108,18.272c1.69,17.261,3.638,34.646,7.126,51.594,1.348,6.551,3.068,13.228,6.85,18.506,8.146,11.367,23.477,12.244,33.63,3.766,7.837-6.544,12.347-16.997,14.188-27.619v50.216c31.995,0,128.5,0,128.5,0,12.63-3.45,24.833-9.949,27.885-23.434,5.074-22.419-6.778-57.495-18.956-76.168-13.924-21.35-33.094-29.234-58.436-37.992-1.06-2.743-2.257-5.851-2.779-7.247-.355-.949-1.476-1.298-2.265-.687-3.068,2.378-7.196,5.579-12.089,9.087Z"/><path class="d" d="M30.105,176.202c1.123,11.451,2.357,22.894,4.057,34.276.838,5.611,1.793,11.206,2.913,16.768,1.006,4.997,2.169,9.953,4.205,14.644,3.448,7.947,10.162,14.297,18.878,15.817,8.181,1.427,16.376-1.17,22.519-6.694,7.902-7.106,12.126-17.659,13.938-27.926.225-1.275-.344-2.586-1.676-2.952-1.159-.318-2.726.393-2.952,1.676-1.481,8.39-4.488,16.936-10.267,23.364-4.9,5.451-11.594,8.718-19.016,8.067-7.566-.664-13.456-5.781-16.672-12.441-2.003-4.151-3.064-8.735-4-13.223-1.087-5.215-2.014-10.464-2.837-15.727-1.849-11.828-3.122-23.736-4.29-35.648-.126-1.29-1.013-2.4-2.4-2.4-1.2,0-2.527,1.102-2.4,2.4h0Z"/><path class="g" d="M145.468,142.358h-1.742c-2.362,2.655-5.283,6.476-7.524,9.481.9,4.3,2.36,11.7,2.36,12.43,0,.325-.875,7.107-1.926,15.768,3.302,6.064,6.397,11.722,8.831,16.217,2.43-4.497,5.525-10.153,8.827-16.216-1.051-8.662-1.926-15.444-1.926-15.769,0-.73,1.461-8.137,2.364-12.436-2.243-2.997-5.165-6.819-7.528-9.475h-1.737Z"/><path class="h" d="M137.348,181.781c-9.096-16.707-20.115-37.169-23.21-44.835,0,0-.174-.394-.462-1.058-9.668,2.315-23.707,7.274-34.409,14.633.001,10.89.002,21.933.003,31.261,12.838,0,34.967-.001,58.079-.002Z"/><path class="d" d="M72.311,159.627c4.578-5.027,10.348-8.782,16.34-11.911,6.037-3.153,12.401-5.658,18.907-7.658,3.029-.931,6.094-1.749,9.195-2.403,3.021-.637,1.742-5.265-1.276-4.629-6.098,1.286-12.083,3.165-17.885,5.429-6.85,2.673-13.568,5.874-19.632,10.06-3.265,2.254-6.368,4.78-9.043,7.717-2.076,2.28,1.309,5.684,3.394,3.394h0Z"/><path class="h" d="M210.209,181.782c0-9.057.002-19.727.004-30.309-9.641-6.321-20.782-10.744-33.548-15.23-.217.588-.346.939-.346.939-3.247,7.841-14.19,28.053-23.209,44.599,22.429,0,43.99,0,57.098,0Z"/><path class="e" d="M95.951,35.638c2.458-6.502,7.507-15.167,15.404-21.43,9.182-7.283,20.077-11.347,33.637-11.842,11.887-.434,24.95,4.259,32.886,11.603l7.793,6.921c7.033,5.983,11.029,14.994,12.386,23.46,1.279,7.976.969,15.695-.467,23.84-1.438-.602-2.912-.877-4.271-.877-2.81,0-5.753,1.481-7.858,4.436-4.537-12.628-13.001-23.513-25.864-28.306-14.808,10.56-43.689,25.741-57.168,28.181-1.314-1.031-2.947-1.424-4.367-1.374-1.344.047-2.386.359-3.197.784-2.853-10.413-3.214-19.626-.113-31.662.289-1.124.689-2.382,1.2-3.734Z"/><path class="d" d="M179.576,12.271C165.552-.561,144.343-2.809,126.796,3.113c-16.045,5.416-29.509,18.457-34.174,34.937-3.068,10.837-3.11,22.001-.272,32.875.779,2.986,5.411,1.72,4.629-1.276-4.14-15.864-1.669-33.138,8.575-46.176,10.458-13.31,28.133-20.013,44.846-18.565,9.255.802,18.878,4.439,25.782,10.757,2.275,2.082,5.679-1.303,3.394-3.394h0Z"/><path class="d" d="M199.513,70.943c3.449-17.692,2.549-39.08-12.145-51.75-.981-.846-2.43-.964-3.394,0-.865.865-.986,2.544,0,3.394,13.361,11.521,14.046,30.996,10.91,47.08-.248,1.271.359,2.59,1.676,2.952,1.177.323,2.703-.398,2.952-1.676h0Z"/><path class="d" d="M104.256,73.704c7.308-1.635,14.33-4.791,21.084-7.949,8.144-3.808,16.091-8.065,23.802-12.687,3.823-2.291,7.59-4.68,11.235-7.247,1.058-.745,1.555-2.098.861-3.284-.612-1.047-2.219-1.611-3.284-.861-6.761,4.762-13.918,8.974-21.18,12.918-7.482,4.064-15.146,7.898-23.075,11.018-3.491,1.374-7.052,2.642-10.719,3.463-3.013.674-1.738,5.303,1.276,4.629h0Z"/><path class="d" d="M104.572,70.314c-2.895-2.597-7.024-3.165-10.554-1.527-2.55,1.183-4.067,3.653-4.758,6.293-1.618,6.178-.05,13.289,3.432,18.576,2.388,3.627,6.201,6.927,10.843,6.313,1.285-.17,2.4-.981,2.4-2.4,0-1.165-1.106-2.571-2.4-2.4-3.503.464-5.896-2.374-7.446-5.174-1.322-2.39-2.32-5.153-2.554-7.882-.225-2.632-.212-5.843,1.383-8.09.095-.133.075-.106-.061.08.097-.115.199-.226.304-.332-.003.003.505-.443.279-.272.519-.392,1.055-.604,1.693-.74,1.422-.302,2.945-.035,4.043.95,2.294,2.057,5.699-1.326,3.394-3.394h0Z"/><path class="d" d="M159.538,45.975c10.998,4.364,18.769,14.04,23.018,24.834.474,1.205,1.607,2.046,2.952,1.676,1.148-.316,2.154-1.739,1.676-2.952-4.929-12.523-13.647-23.138-26.371-28.187-1.205-.478-2.636.523-2.952,1.676-.375,1.365.467,2.472,1.676,2.952h0Z"/><path class="d" d="M137.442,108.181c2.642,1.395,5.486,1.985,8.474,1.966,3.073-.02,6.14-.64,8.596-2.555.995-.775.875-2.591,0-3.394-1.055-.969-2.332-.827-3.394,0,.74-.576.214-.17.024-.048-.168.108-.341.207-.517.299-.091.048-.185.091-.277.138-.195.1-.386.058.142-.051-.237.049-.481.184-.713.259-.651.209-1.32.35-1.995.455.363-.057.072-.012-.129.008-.196.019-.392.036-.588.048-.472.03-.945.042-1.418.04-.424-.003-.847-.017-1.27-.046-.194-.013-.388-.029-.582-.048-.069-.007-.777-.125-.22-.022-.629-.116-1.25-.23-1.864-.414-.261-.078-.516-.172-.773-.26-.594-.203.409.205-.127-.048-.32-.151-.635-.308-.947-.473-1.11-.586-2.66-.318-3.284.861-.586,1.109-.324,2.658.861,3.284h0Z"/><path class="d" d="M144.592,88.354c.364,1.39.714,2.801.923,4.223l-.086-.638c.025.195.036.387.016.583l.086-.638c-.014.091-.034.176-.064.262l.242-.573c-.027.061-.055.113-.093.169l.375-.486c-.043.053-.085.093-.138.136l.486-.375c-.107.069-.219.124-.334.177l.573-.242c-.184.077-.367.133-.564.164l.638-.086c-.178.021-.351.02-.529,0l.638.086c-.2-.028-.395-.076-.595-.103-.319-.1-.638-.114-.957-.043-.319.014-.617.109-.892.285-.498.291-.973.862-1.103,1.434-.14.614-.11,1.304.242,1.849.312.484.835,1.022,1.434,1.103.475.064.936.184,1.419.205.752.033,1.448-.199,2.118-.508.833-.383,1.486-1.146,1.708-2.043.188-.761.109-1.411-.02-2.174-.23-1.361-.544-2.709-.894-4.044-.152-.579-.588-1.133-1.103-1.434s-1.273-.429-1.849-.242c-1.25.404-2.018,1.651-1.676,2.952h0Z"/><path class="d" d="M122.399,76.332c-.705,2.292-.246,7.564,4.096,8.013,5.739-.034,6.044-6.409,4.112-9.406-1.582-2.454-6.233-3.474-8.209,1.393Z"/><path class="d" d="M168.532,76.332c.705,2.292.246,7.564-4.096,8.013-5.739-.035-6.044-6.409-4.113-9.406,1.582-2.454,6.232-3.474,8.209,1.393Z"/><path class="d" d="M189.753,73.708c1.096-.983,2.623-1.257,4.043-.95.632.137,1.177.35,1.693.74-.205-.155.814.905.466.446,1.674,2.21,1.664,5.543,1.439,8.169-.229,2.676-1.195,5.374-2.47,7.727-1.546,2.854-3.962,5.801-7.53,5.329-1.287-.17-2.4,1.225-2.4,2.4,0,1.438,1.109,2.229,2.4,2.4,7.526.996,12.091-7.218,13.976-13.271,1.018-3.27,1.131-6.876.585-10.239-.455-2.804-1.663-5.453-4.044-7.105-3.504-2.432-8.471-1.804-11.554.961-2.304,2.067,1.099,5.452,3.394,3.394h0Z"/><path class="d" d="M185.342,93.713c-.38,1.842-.93,3.647-1.557,5.419-.489,1.381-.842,2.126-1.348,3.387.001-.003.202-.433-.011.013-.081.171-.158.344-.239.514-.201.422-.412.839-.629,1.253-.538,1.024-1.115,2.028-1.718,3.016-3.053,5.004-6.768,9.733-11.316,13.464-2.508,2.057-5.326,3.683-8.46,4.41-3.008.697-1.735,5.327,1.276,4.629,6.519-1.511,11.947-6.263,16.201-11.217,3.517-4.094,6.807-8.702,9.03-13.646.145-.322.283-.648.417-.974.036-.086.279-.669.135-.334-.159.368.05-.1.086-.183.136-.309.266-.621.395-.933.156-.377.306-.757.45-1.139.787-2.083,1.467-4.221,1.916-6.404.261-1.268-.369-2.593-1.676-2.952-1.188-.326-2.689.401-2.952,1.676h0Z"/><path class="d" d="M100.839,94.838c1.441,6.351,4.03,12.513,7.662,17.923,3.874,5.771,8.942,11.177,15.077,14.564,3.132,1.729,6.546,2.905,10.083,3.43,1.281.19,2.58-.32,2.952-1.676.311-1.131-.386-2.761-1.676-2.952-7.754-1.15-13.894-5.591-18.939-11.412-5.234-6.039-8.768-13.379-10.532-21.153-.683-3.011-5.312-1.737-4.629,1.276h0Z"/><path class="d" d="M81.67,205.832v-52.574c0-3.089-4.8-3.094-4.8,0v52.574c0,3.089,4.8,3.094,4.8,0h0Z"/><path class="d" d="M212.608,205.832v-52.574c0-3.089-4.8-3.094-4.8,0v52.574c0,3.089,4.8,3.094,4.8,0h0Z"/><path class="d" d="M151.854,160.053c-4.176,0-8.352,0-12.528,0-1.255,0-2.458,1.104-2.4,2.4s1.055,2.4,2.4,2.4c4.176,0,8.352,0,12.528,0,1.255,0,2.458-1.104,2.4-2.4s-1.055-2.4-2.4-2.4h0Z"/><path class="d" d="M156.648,179.658c-.617-5.076-1.14-10.179-1.868-15.24-.016-.11.016-.223.002-.329-.012-.088-.109.662-.017.133.031-.179.057-.359.087-.538.178-1.062.379-2.119.581-3.177.512-2.682,1.051-5.359,1.609-8.032.63-3.014-3.996-4.303-4.629-1.276-.569,2.725-1.118,5.455-1.639,8.189-.3,1.575-.836,3.354-.8,4.969s.39,3.271.588,4.866c.432,3.477.863,6.955,1.286,10.433.156,1.286.991,2.4,2.4,2.4,1.176,0,2.557-1.105,2.4-2.4h0Z"/><path class="d" d="M139.083,179.658c.423-3.479.854-6.956,1.286-10.433.199-1.598.543-3.253.588-4.866s-.501-3.4-.8-4.969c-.521-2.735-1.07-5.464-1.639-8.189-.631-3.022-5.259-1.743-4.629,1.276.547,2.62,1.075,5.245,1.579,7.874.206,1.076.412,2.153.595,3.234.031.186.061.373.092.559.081.486-.051.155-.009-.101-.019.114.02.255.006.375-.568,5.086-1.251,10.16-1.868,15.24-.157,1.289,1.215,2.4,2.4,2.4,1.427,0,2.243-1.107,2.4-2.4h0Z"/><path class="d" d="M177.568,139.492c-1.452-3.74-2.906-7.479-4.332-11.229-.514-1.352-.978-2.662-2.341-3.391-2.015-1.077-3.703.072-5.273,1.287-2.563,1.985-5.142,3.948-7.753,5.87-3.884,2.858-7.838,5.619-11.876,8.256-1.349.881-1.542,2.575-.486,3.769,3.569,4.036,6.709,8.424,9.937,12.73.776,1.035,2.074,1.568,3.284.861,1.02-.597,1.643-2.24.861-3.284-3.472-4.631-6.85-9.361-10.688-13.702l-.486,3.769c4.096-2.675,8.105-5.477,12.043-8.379,1.656-1.22,3.3-2.457,4.934-3.706.718-.548,1.434-1.099,2.149-1.651.128-.099,2.217-1.534,2.178-1.685-.418.306-.832.296-1.24-.029-.23-.437-.287-.513-.171-.23.038.227.18.477.262.692.221.582.444,1.164.667,1.745.538,1.402,1.078,2.803,1.619,4.203.693,1.793,1.387,3.586,2.083,5.378.469,1.208,1.612,2.045,2.952,1.676,1.153-.317,2.148-1.737,1.676-2.952h0Z"/><path class="d" d="M117.992,140.768c.696-1.792,1.39-3.585,2.083-5.378.541-1.4,1.081-2.801,1.619-4.203.223-.581.446-1.163.667-1.745.082-.215.224-.465.262-.692.117-.283.06-.207-.171.23-.408.325-.822.335-1.24.029-.04.15,2.049,1.586,2.178,1.685.715.552,1.431,1.103,2.149,1.651,1.635,1.249,3.278,2.486,4.934,3.706,3.938,2.902,7.947,5.704,12.043,8.379l-.486-3.769c-3.838,4.34-7.216,9.07-10.688,13.702-.778,1.038-.167,2.682.861,3.284,1.227.718,2.504.179,3.284-.861,3.228-4.306,6.369-8.695,9.937-12.73,1.056-1.195.863-2.889-.486-3.769-6.531-4.265-12.825-8.871-18.998-13.637-1.248-.964-2.442-2.18-4.117-2.216-2.048-.044-3.229,1.483-3.889,3.202-.847,2.204-1.688,4.411-2.539,6.613-.676,1.749-1.353,3.497-2.032,5.245-.469,1.209.517,2.634,1.676,2.952,1.357.373,2.481-.463,2.952-1.676h0Z"/><path class="d" d="M148.242,196.162c8.982-16.549,18.255-32.97,26.664-49.822,1.682-3.371,3.45-6.787,4.665-10.362.996-2.931-3.638-4.189-4.629-1.276-.197.58-.427,1.145-.641,1.719-.168.45.165-.364-.135.318-.276.628-.555,1.255-.843,1.878-.695,1.504-1.419,2.995-2.154,4.48-1.851,3.737-3.773,7.439-5.715,11.13-4.647,8.836-9.419,17.605-14.197,26.371-2.388,4.38-4.781,8.757-7.16,13.141-1.474,2.716,2.669,5.141,4.145,2.423h0Z"/><path class="d" d="M146.834,193.739c-8.919-16.433-18.115-32.741-26.485-49.464-.861-1.72-1.71-3.447-2.524-5.19-.326-.699-.647-1.401-.957-2.108-.046-.105-.091-.211-.137-.316-.228-.521-.017-.034-.043-.098-.245-.616-.486-1.233-.699-1.861-.988-2.909-5.626-1.66-4.629,1.276,1.063,3.129,2.573,6.125,4.031,9.084,1.87,3.795,3.819,7.55,5.787,11.295,4.668,8.884,9.465,17.7,14.268,26.512,2.415,4.43,4.836,8.857,7.242,13.292,1.474,2.716,5.62.296,4.145-2.423h0Z"/><path class="d" d="M223.439,274.979c11.929-3.286,24.041-9.521,28.581-21.799,2.078-5.619,2.412-12.01,2.237-17.945-.195-6.579-1.185-13.146-2.62-19.563-2.878-12.869-7.56-25.518-13.855-37.11-5.938-10.935-13.897-20.429-24.094-27.621-10.337-7.291-22.268-11.982-34.112-16.206-1.618-.577-3.239-1.145-4.861-1.708-2.924-1.015-4.181,3.62-1.276,4.629,11.537,4.004,23.163,8.201,33.602,14.644,9.949,6.141,18.115,14.451,24.17,24.449,6.338,10.467,10.96,22.042,14.204,33.819,3.137,11.389,5.42,23.925,3.412,35.722-.968,5.688-3.341,10.628-7.603,14.577-4.174,3.867-9.475,6.395-14.822,8.197-1.4.472-2.814.895-4.238,1.287-2.974.819-1.711,5.451,1.276,4.629h0Z"/><path class="f" d="M68.023,189.9c.309,20.541,1.141,74.312,1.464,94.589.07,4.37,3.629,7.867,7.999,7.865,26.143-.013,109.815-.013,135.957,0,4.37.002,7.93-3.495,7.999-7.865.324-20.277,1.155-74.049,1.464-94.59.067-4.466-3.529-8.116-7.995-8.116-26.788-.002-112.128,0-138.897,0-4.466,0-8.06,3.651-7.993,8.117Z"/><path class="d" d="M65.623,189.9c.27,17.918.547,35.835.825,53.753.146,9.436.293,18.871.441,28.307.056,3.586.113,7.172.17,10.758.038,2.384.178,4.645,1.382,6.779,1.308,2.319,3.549,4.068,6.092,4.833,1.765.531,3.624.424,5.443.423,1.389,0,2.779-.001,4.168-.002,3.406-.001,6.811-.002,10.217-.003,8.508-.002,17.016-.003,25.525-.004,19.091-.002,38.183-.001,57.274,0,8.07,0,16.141.002,24.211.004,3.077,0,6.154.002,9.23.003,1.608,0,3.242.091,4.831-.197,2.648-.48,4.981-2.078,6.535-4.25,2.427-3.391,1.909-7.845,1.972-11.801.064-4.042.127-8.084.19-12.126.154-9.867.308-19.735.46-29.602.151-9.79.302-19.581.452-29.371.061-3.978.122-7.956.182-11.934.065-4.291.605-8.679-2.274-12.264-1.798-2.239-4.492-3.572-7.34-3.794-1.352-.105-2.735-.03-4.091-.03-3.124,0-6.248,0-9.371,0-8.107,0-16.215,0-24.322,0-19.124,0-38.248,0-57.371,0-8.61,0-17.219,0-25.829,0-6.198,0-12.412-.127-18.609,0-5.778.119-10.355,4.728-10.393,10.517-.02,3.089,4.78,3.093,4.8,0,.014-2.117,1.053-4.002,2.922-5.041,1.445-.804,3.05-.675,4.644-.675,2.912,0,5.823,0,8.735,0,7.598,0,15.196,0,22.794,0,18.633,0,37.266,0,55.899,0,15.337,0,30.674,0,46.011,0,1.272,0,2.565-.065,3.835.008,2.062.118,3.937,1.427,4.777,3.316.696,1.565.453,3.362.427,5.03-.026,1.709-.052,3.417-.078,5.126-.133,8.713-.266,17.426-.401,26.139-.283,18.391-.568,36.783-.859,55.174-.052,3.269.672,7.554-2.245,9.818-2.27,1.762-5.803,1.159-8.515,1.158-7.02-.003-14.039-.004-21.059-.005-18.242-.003-36.484-.003-54.726-.003-16.147,0-32.295.002-48.442.007-1.389,0-2.779,0-4.168.002-1.482,0-3.068.178-4.479-.353-1.869-.703-3.261-2.423-3.561-4.401-.22-1.453-.086-3.041-.11-4.511-.13-8.208-.258-16.417-.386-24.625-.294-18.87-.586-37.74-.873-56.611-.049-3.184-.097-6.368-.145-9.552-.046-3.086-4.847-3.095-4.8,0Z"/><path class="f" d="M44.01,125.026c-5.884-7.322-11.932-14.503-14.116-16.905-.904-.994-2.61-2.255-4.882-2.128-1.367.077-3.18.801-4.099,2.946-3.828-4.705-6.788-4.128-8.654-2.597-1.562,1.281-1.746,4.252-.803,6.217-2.054-.809-4.338-.522-5.336.531-2.767,2.92-1.851,5.798.53,9.565-1.175-.341-2.149-.1-2.826.504-1.458,1.297-2.717,3.781,1.195,8.98,4.019,5.341,8.115,11.555,12.777,17.016,3.656,4.282,7.851,8.083,11.743,12.142,3.008,3.137,6.113,6.297,9.91,8.396.026.873.277,2.605.511,4.051.221,1.366,1.432,2.349,2.815,2.29l23.698-1.019-.107-3.588c.154-3.531,1.942-7.107,3.178-10.55,1.755-4.856,2.439-10.197,1.313-15.229-.596-2.671-1.577-5.182-2.551-7.742-2.071-5.445-4.185-10.284-6.337-15.272-1.17-2.715-2.787-5.248-5.656-6.561-1.49-.673-3.266-.618-4.58.364-2.207,1.655-1.766,4.668-1.214,7.184.789,3.541,1.165,6.331,1.753,9.513.149.806-.887,1.302-1.384.65-2.08-2.73-4.466-5.756-6.878-8.758Z"/><path class="d" d="M41.082,167.846c-5.834-3.134-10.174-8.635-14.808-13.24-4.948-4.918-9.349-10.122-13.438-15.772-1.91-2.64-3.809-5.286-5.745-7.907-.774-1.048-1.583-2.172-2.017-3.414-.091-.26-.163-.528-.223-.797-.111-.499-.037-.204-.026-.086-.021-.219-.018-.436-.012-.656.024-.288.021-.272-.012.047.025-.122.055-.242.091-.36.053-.11.195-.417-.052.081.075-.151.162-.291.243-.438.259-.472-.356.354.009-.021.068-.07.146-.147.21-.223.057-.068.445-.436.033-.06.394-.359-.389.089.131-.079.414-.135.074-.037-.03-.016.147-.008.294-.006.441.005-.252-.034-.228-.02.073.041,2.152.637,4.02,3.535,5.52,5.339,3.868,4.651,7.639,9.381,11.453,14.076.818,1.007,2.544.85,3.394,0,.995-.995.82-2.385,0-3.394-3.738-4.601-7.433-9.236-11.22-13.796-2.112-2.542-4.152-5.48-7.366-6.683-2.208-.827-4.59-.271-6.134,1.515-4.264,4.932,1.027,10.84,3.929,14.856,4.529,6.267,8.979,12.572,14.376,18.139,3.019,3.114,6.124,6.145,9.152,9.251,2.877,2.949,5.951,5.778,9.604,7.74,2.721,1.462,5.148-2.681,2.423-4.145h0Z"/><path class="d" d="M8.396,120.916c-.709-1.188-1.642-2.635-1.578-4.068.022-.477.168-.893.417-1.31.163-.273.355-.528.583-.751.014-.014.279-.245.096-.095-.216.178.306-.107.085-.036.327-.105.734-.181,1.216-.161.464.019,1.019.125,1.514.346.927.414,1.505,1.182,2.139,1.936,3.584,4.263,7.179,8.515,10.696,12.833,2.447,3.004,4.868,6.032,7.205,9.123.78,1.032,2.071,1.57,3.284.861,1.017-.595,1.647-2.243.861-3.284-4.795-6.342-9.861-12.476-14.975-18.562-1.577-1.877-3.075-4.08-4.896-5.729-2.576-2.334-7.092-3.33-10.046-1.103-1.762,1.328-2.885,3.577-2.971,5.77-.094,2.39,1.034,4.655,2.225,6.652,1.581,2.65,5.733.239,4.145-2.423h0Z"/><path class="d" d="M13.55,111.402c-.446-.985-.369-2.378.191-3.167.38-.534-.16.058.221-.182.093-.059.844-.426.345-.23.104-.041.941-.234.402-.163.223-.029.457-.028.681-.013-.418-.029.471.125.589.17-.156-.059.414.208.489.251.837.482,1.51,1.163,2.156,1.872,1.317,1.443,2.572,2.949,3.829,4.445,5.42,6.451,10.563,13.128,15.846,19.69.813,1.01,2.547.847,3.394,0,.999-.999.816-2.381,0-3.394-4.922-6.114-9.725-12.325-14.739-18.364-3.457-4.164-8.933-12.458-15.327-8.463-3.431,2.145-3.772,6.542-2.221,9.971.534,1.181,2.248,1.467,3.284.861,1.215-.71,1.397-2.098.861-3.284h0Z"/><path class="d" d="M37.062,169.919c.159,2.193.219,4.994,1.722,6.736,1.04,1.205,2.524,1.78,4.095,1.774,1.405-.005,2.82-.121,4.223-.182l15.241-.655,4.131-.178c1.267-.054,2.44-1.056,2.4-2.4-.04-1.331-.187-2.701-.08-4.03.266-3.285,1.97-6.41,3.065-9.47,2.372-6.627,2.515-13.537.252-20.203-2.201-6.484-4.999-12.776-7.711-19.058-1.13-2.617-2.47-5.111-4.752-6.907-2.591-2.038-6.212-3.01-9.126-.981s-3.11,5.507-2.551,8.717c.304,1.748.726,3.476,1.038,5.224.149.836.29,1.674.432,2.511.071.417.141.834.213,1.251.049.282.098.563.148.845.072.532.096.57.072.116l.617-1.059,1.243-.308,1.059.617c-1.158-1.07-2.123-2.684-3.126-3.963-1.077-1.375-2.163-2.743-3.255-4.106-2.239-2.797-4.502-5.574-6.786-8.334-1.836-2.22-3.684-4.43-5.558-6.618-1.414-1.65-2.802-3.548-4.741-4.611-3.739-2.048-8.465-.969-10.43,2.948-1.381,2.754,2.758,5.187,4.145,2.423.331-.659.694-1.202,1.398-1.492-.094.039.811-.164.647-.148.156-.015.861.037,1.244.167,1.187.403,1.935,1.339,2.737,2.251,2.09,2.378,4.12,4.808,6.144,7.242,2.757,3.316,5.484,6.657,8.175,10.026,1.358,1.7,2.708,3.408,4.042,5.127,1.383,1.782,2.992,4.324,5.605,2.887,2.575-1.416,1.35-4.685.965-6.953-.406-2.394-.939-4.761-1.37-7.148-.22-1.216-.53-3.296.952-3.856,1.575-.595,3.364,1.029,4.269,2.123,1.311,1.587,2.046,3.598,2.852,5.466.994,2.302,1.986,4.605,2.942,6.924,1.951,4.73,4.28,9.687,5.117,14.766.959,5.816-.903,11.196-2.955,16.538-.929,2.417-1.827,4.999-1.836,7.62-.004,1.15.069,2.306.103,3.456l2.4-2.4c-7.518.323-15.036.646-22.555.97-.352.015-.78.102-1.13.049-.552-.085-.313-.058-.514-.527-.368-.856-.345-2.255-.412-3.186-.094-1.293-1.036-2.4-2.4-2.4-1.226,0-2.494,1.1-2.4,2.4h0Z"/><path class="f" d="M194.125,98.509c-6.378,0-11.211-5.923-11.211-16.394s5.841-15.689,11.214-15.689c5.464,0,12.739,4.309,12.739,15.689,0,9.897-5.627,16.394-12.741,16.394Z"/><path class="d" d="M194.125,96.109c-1.902-.024-3.656-.707-5.079-2.126-1.696-1.691-2.717-4.211-3.249-6.711-1.191-5.59-.628-12.779,3.819-16.687.475-.417,1.786-1.18,2.231-1.333.477-.164.961-.293,1.457-.384.282-.052-.03,0-.075.005.111-.013.225-.025.338-.029.289-.009.574-.023.863-.015.239.007.477.026.716.044.47.034-.273-.065.197.025.501.095.997.204,1.485.353.871.267,1.46.524,2.47,1.177,1.645,1.062,3.102,2.823,3.978,4.927,1.22,2.931,1.421,6.342,1.043,9.473-.354,2.931-1.44,6-3.428,8.168-1.842,2.008-4.181,3.079-6.766,3.111-3.086.038-3.095,4.838,0,4.8,7.332-.091,12.68-5.764,14.397-12.583,1.733-6.886.756-15.604-4.838-20.547-4.194-3.706-10.451-5.069-15.431-2.089-6.665,3.988-8.365,12.682-7.551,19.85.464,4.084,1.669,8.1,4.408,11.254,2.274,2.62,5.565,4.071,9.016,4.115,3.09.039,3.092-4.761,0-4.8Z"/><path class="d" d="M189.076,97.298c-3.388,6.121-7.388,12.154-13.265,16.152-3.135,2.132-6.574,3.931-10.215,5.014-3.846,1.144-7.712,1.554-11.709,1.704-3.079.115-3.094,4.916,0,4.8,4.401-.164,8.75-.616,12.985-1.875,4.023-1.196,7.896-3.14,11.362-5.498,6.585-4.479,11.177-10.99,14.987-17.874,1.497-2.705-2.647-5.129-4.145-2.423h0Z"/><path class="d" d="M149.021,122.31c-.225-3.205,2.221-5.356,6.559-5.509,4.367-.154,6.581,1.587,6.712,4.107.133,2.54-1.891,5.613-6.261,5.9-3.945.259-6.828-1.622-7.01-4.498Z"/><path class="d" d="M151.421,122.31c-.015-.257-.003-.51-.002-.766.002-.524-.135.557-.011.058.023-.092.038-.186.062-.279.035-.137.083-.268.123-.403.082-.271.13.011-.082.188.099-.082.387-.596.426-.712-.118.356-.284.331-.11.16.102-.1.194-.207.299-.304,0,0,.214-.166.218-.191-.026.19-.417.291-.006.024.219-.143.45-.258.68-.382.223-.12.088-.159-.124.045.096-.093.347-.129.481-.172.285-.092.575-.167.868-.229.186-.039.373-.07.56-.102-.088.015-.513.048-.049.011.78-.062,1.559-.089,2.34-.028.132.01.264.025.396.037-.616-.059-.008.005.107.027.284.055.566.123.842.209.104.032.206.072.309.104.522.159-.463-.256-.002-.001.227.125.452.289.683.399.261.124-.407-.419-.112-.083.056.064.131.119.192.18.029.029.27.248.259.287-.052.178-.31-.521-.152-.18.047.101.124.233.189.324.208.293-.284-.181-.088-.232.069-.018.162.684.203.73-.187-.207-.038-.578-.032-.185.002.106.011.211.011.317,0,.085-.008.169-.008.254,0,.562-.026-.148.028-.124.036.016-.142.614-.151.645-.026.086-.059.171-.085.257-.132.43.281-.506-.002-.004-.105.185-.199.374-.316.553-.256.393-.172.023.033-.016-.028.005-.159.188-.193.226-.171.19-.361.357-.546.532-.388.368.449-.273-.017.011-.14.085-.273.181-.415.263-.122.071-.249.131-.372.2-.435.243.004-.026.015.006.009.026-.843.273-.877.282-.125.032-.251.061-.377.087-.097.02-.741.093-.161.039-.383.035-.764.061-1.149.06-.364,0-.724-.026-1.086-.059.623.058.013-.006-.104-.029-.177-.036-.353-.077-.528-.124-.141-.038-.281-.081-.419-.128-.082-.027-.163-.055-.243-.086-.247-.098-.211-.082.109.047-.152.049-.639-.355-.772-.432-.425-.249.092-.013.05.053.001-.002-.292-.261-.335-.304-.037-.036-.261-.329-.3-.328.121-.002.319.471.034.011-.059-.096-.105-.232-.177-.317-.081-.164-.05-.083.092.242-.036-.091-.069-.182-.099-.275-.03-.093-.056-.189-.079-.284-.162-.669.009.332-.026-.108-.1-1.248-1.032-2.461-2.4-2.4-1.214.054-2.508,1.06-2.4,2.4.139,1.731.779,3.35,2.069,4.556,1.26,1.178,2.908,1.928,4.607,2.183,3.796.569,7.728-.421,10.047-3.648,1.812-2.521,1.818-6.085-.224-8.457-2.343-2.722-6.715-2.887-9.972-2.262-3.73.717-6.753,3.664-6.527,7.628.071,1.251,1.053,2.46,2.4,2.4,1.239-.056,2.476-1.058,2.4-2.4Z"/></g></svg>