<?xml version="1.0" encoding="UTF-8"?><svg id="b" xmlns="http://www.w3.org/2000/svg" width="248.062" height="361.346" viewBox="0 0 248.062 361.346"><defs><style>.h{fill:#211715;}.i{fill:#fff;}.j{fill:#645d5c;}.k{fill:#79c6e0;}</style></defs><g id="c"><g id="d"><path class="i" d="M160.857,179.722c-.52-.22-15.26-7.23-15.6-7.35-5.2-1.88-5-5.22-5.65-8.96-.471-2.663-.811-5.346-.986-8.027,13.661-5.559,24.704-24.013,26.613-29.194.284-.863.862-2.485,1.378-4.412.692-.122,1.082-.182,1.082-.182,2.324-.357,4.51-1.413,6.295-2.838,2.325-1.88,3.997-4.349,5.28-6.93,2.634-5.296,3.78-11.218,3.276-17.029-.137-1.474-.378-2.986-1.122-4.313-1.054-1.892-3.15-3.281-5.452-3.625-2.302-.344-4.765.381-6.425,1.88,0,0,4.605-44.545-55.07-44.545-56.112,0-52.699,44.545-52.699,44.545-1.661-1.499-4.123-2.224-6.425-1.88s-4.398,1.732-5.452,3.625c-.744,1.327-.985,2.838-1.122,4.313-.504,5.812.641,11.734,3.276,17.029,1.283,2.58,2.955,5.05,5.28,6.93,1.786,1.424,3.972,2.481,6.295,2.838,0,0,.774.119,2.052.313,1.82,6.439,4.92,13.753,10.412,20.326,4.594,5.499,9.713,9.742,15.273,12.462-.168,3.066-.533,5.733-1.056,8.717-.655,3.738-.45,7.079-5.646,8.955-.344.124-16.78,7.812-17.781,8.153,0,0,.687,25.516,41.044,25.516,46.222,0,52.931-26.317,52.931-26.317Z"/><path class="j" d="M71.518,164.221c7.536-1.146,13.934-4.792,16.774-9.052,0,0,.399-.64.987-1.584-4.758-2.708-9.175-6.544-13.189-11.348-5.493-6.574-8.592-13.888-10.412-20.326-1.277-.194-2.052-.313-2.052-.313-2.324-.357-4.51-1.413-6.295-2.838-.805-.651-1.528-1.376-2.187-2.149-1.296,2.515-2.24,5.397-2.707,8.946-.218,1.798-.336,3.78-.302,5.964.007.405.023.812.045,1.219.237,4.349,1.252,8.779,1.467,13.111.218,4.721-1.01,9.367-5.513,10.896-.178.06-.214.637-.209.783.013.363.169.707.361,1.009.549.862,1.452,1.499,2.308,2.024,5.022,3.077,12.746,4.902,20.923,3.659Z"/><path class="j" d="M178.017,53.304c-.203-1.185-.411-2.281-.612-3.267C171.821,22.654,144.24.917,115.317,2.506c-28.923-1.588-56.504,20.148-62.088,47.532-1.513,7.385-1.332,20.021.044,25.917l2.769,10.847c2.093-.129,4.239.593,5.734,1.943,11.431-7.93,30.821-21.704,40.861-30.338-.826,5.125-3.76,13.842-.064,12.945,15.434-3.574,30.226-10.781,39.17-22.024,1.885,6.638,5,15.607,7.289,19.527,3.239,5.546,12.624,18.025,20.513,19.89,1.661-1.499,4.123-2.224,6.425-1.88.339.051.674.124,1.001.218,4.019-9.308,2.665-24.341,1.046-33.778Z"/><path class="h" d="M55.556,75.551c-.71-3.127-.879-6.341-.969-9.647-.108-3.924-.006-7.871.422-11.775.77-7.031,3.346-13.86,6.938-19.921,7.515-12.682,19.922-22.454,33.994-26.837,3.546-1.104,7.205-1.906,10.903-2.274,3.776-.375,7.585-.268,11.372-.273,7.456-.01,14.889,1.568,21.756,4.462,13.646,5.752,25.162,16.58,31.41,30.033,2.84,6.114,4.21,12.749,5.034,19.406.919,7.419,1.425,15.283-.176,22.643-.371,1.705-.872,3.374-1.545,4.985-.5,1.197.539,2.64,1.676,2.952,1.383.38,2.451-.475,2.952-1.676,3.047-7.3,3.003-15.861,2.42-23.618-.547-7.275-1.552-14.783-3.993-21.688-5.3-14.992-16.687-27.556-30.694-34.958-7.185-3.797-15.003-6.22-23.089-7.051C120.021-.091,116.018.004,112.056.024c-4.038.021-8.09.483-12.04,1.32-15.714,3.329-29.852,12.917-39.227,25.887-4.553,6.299-7.947,13.547-9.654,21.14s-1.789,15.85-.965,23.574c.175,1.636.392,3.276.757,4.882.684,3.011,5.313,1.737,4.629-1.276h0Z"/><path class="h" d="M139.657,50.771c1.118,3.822,2.359,7.612,3.769,11.336,1.127,2.975,2.311,5.983,3.979,8.703,3.331,5.428,7.49,10.65,12.295,14.841,2.673,2.332,5.712,4.534,9.206,5.408,2.997.75,4.276-3.878,1.276-4.629-5.358-1.341-9.964-6.599-13.457-10.836s-6.327-8.727-8.321-13.852c-1.562-4.014-2.91-8.114-4.119-12.248-.865-2.959-5.499-1.7-4.629,1.276h0Z"/><path class="h" d="M140.201,47.434c-5.078,6.403-11.736,11.217-19.011,14.848-3.768,1.881-7.69,3.419-11.702,4.691-2.095.664-4.214,1.256-6.349,1.778-.263.064-.541.115-.802.192-.393.116-.45-.081-.128.067-.145-.067-.325-.195.177.049.238.116.381.166.595.352.2.173.231.325.23.335.004-.07-.045-.458-.047-.133-.002.365-.01-.229-.011-.299-.024-3.308,1.225-6.827,1.798-10.271.395-2.375-2.116-3.961-4.011-2.335-10.076,8.645-21.018,16.329-31.847,23.989-2.834,2.004-5.676,3.995-8.528,5.974-1.064.738-1.551,2.103-.861,3.284.616,1.053,2.214,1.604,3.284.861,11.303-7.843,22.532-15.823,33.396-24.268,2.694-2.094,5.361-4.224,7.951-6.445l-4.011-2.335c-.61,3.673-1.891,7.339-1.969,11.084-.032,1.552.274,3.236,1.576,4.23,1.752,1.337,3.98.439,5.883-.055,9.28-2.41,18.425-6.125,26.316-11.628,4.285-2.988,8.214-6.471,11.465-10.571.805-1.015.99-2.404,0-3.394-.835-.835-2.584-1.021-3.394,0h0Z"/><path class="h" d="M53.064,115.401c-3.096,6.137-3.809,13.16-3.064,19.933.398,3.622,1.15,7.223,1.26,10.873.068,2.245-.121,4.884-1.595,6.71-.774.96-1.729,1.163-2.74,1.754-1.643.961-1.66,3.249-.887,4.764,1.363,2.668,4.739,4.112,7.375,5.181,6.159,2.499,13.098,2.947,19.605,1.778,6.577-1.182,13.479-4.356,17.35-10.009,1.749-2.555-2.408-4.959-4.145-2.423-3.661,5.347-11.313,7.731-17.462,8.167-3.773.268-7.554-.076-11.188-1.137-1.474-.43-2.907-.965-4.275-1.665-.723-.37-1.482-.767-2.138-1.251-.231-.17-.47-.492-.706-.625-.3-.17-.023-.268-.115.057l-.617,1.059.11-.128-1.059.617c7.672-2.774,7.703-11.144,6.796-17.973-1.04-7.83-2.064-15.921,1.638-23.26,1.388-2.751-2.752-5.184-4.145-2.423h0Z"/><path class="h" d="M171.242,90.441c2.301-1.966,6.197-1.6,7.923.948.912,1.348.999,3.183,1.067,4.755.087,2.021,0,4.068-.342,6.064-1.211,7.083-4.944,15.72-12.834,17.075-1.278.22-1.995,1.791-1.676,2.952.372,1.352,1.67,1.896,2.952,1.676,8.171-1.403,13.02-9.12,15.256-16.488,1.165-3.838,1.667-7.947,1.407-11.951-.257-3.959-1.454-7.683-5.104-9.744-3.908-2.206-8.68-1.553-12.042,1.318-.986.842-.866,2.528,0,3.394.977.977,2.405.844,3.394,0h0Z"/><path class="h" d="M165.21,115.62c-.076,2.321-.614,4.582-1.276,6.8-.256.857-.537,1.706-.822,2.555-.077.23-.151.461-.235.688-.066.178-.365.845-.056.156-1.021,2.278-2.257,4.452-3.583,6.565-3.85,6.136-8.555,11.98-14.278,16.468-3.153,2.473-6.68,4.46-10.587,5.358-3.009.692-1.736,5.321,1.276,4.629,8.046-1.849,14.78-7.653,20.082-13.725,4.298-4.923,8.336-10.485,11.052-16.461,1.827-4.021,3.081-8.619,3.226-13.032.102-3.09-4.698-3.086-4.8,0h0Z"/><path class="h" d="M63.473,87.047c-2.914-2.489-6.984-3.412-10.613-1.98-3.931,1.551-5.897,4.858-6.396,8.928-.945,7.714,1.117,16.492,5.766,22.774,2.649,3.579,6.287,6.375,10.76,7.143,1.276.219,2.585-.34,2.952-1.676.317-1.154-.392-2.732-1.676-2.952-7.889-1.355-11.623-9.992-12.834-17.075-.329-1.923-.42-3.892-.35-5.84.059-1.652.133-3.553,1.075-4.979,1.698-2.569,5.641-2.897,7.923-.948.985.841,2.427.967,3.394,0,.862-.862.99-2.549,0-3.394h0Z"/><path class="h" d="M61.636,114.844c2.923,16.865,12.063,33.37,27.689,41.509,4.252,2.215,8.795,3.562,13.559,4.056,1.291.134,2.4-1.199,2.4-2.4,0-1.409-1.105-2.266-2.4-2.4-16.111-1.67-28.665-16.119-33.725-30.634-1.294-3.712-2.223-7.537-2.894-11.407-.221-1.278-1.79-1.996-2.952-1.676-1.351.371-1.898,1.671-1.676,2.952h0Z"/><path class="i" d="M114.425,178.684h-2.254c-.158-.515-.705-.786-1.195-1.009-8.267-3.749-16.91-9.64-23.684-16.506-3.476,3.195-6.211,7.211-8.254,11.152l-.553,1.067c.168.482.336.965.336.965,1.778,5.111,19.556,28.148,26.963,37.037,2.349,2.544,6.21,7.523,9.098,11.479.586-.766,1.004-1.312,1.004-1.312,5.191-5.399,29.376-38.324,34.943-46.728-.69-1.353-1.275-2.508-1.275-2.508-2.043-3.941-4.778-7.957-8.254-11.152-6.775,6.867-15.418,12.758-23.684,16.506-.49.222-1.037.494-1.195,1.009h-1.995Z"/><path class="i" d="M225.926,219.971c-9.753-8.774-26.595-23.926-26.595-23.926l-3.134,21.283c-2.527,19.908-6.071,43.664-10.084,70.625.357.46.565.727.565.727,7.214,9.436,18.167,19.327,29.051,17.731,14.781-2.168,17.414-21.116,18.201-32.949,1.08-16.221,1.903-30.673-1.233-47.399l-6.771-6.091Z"/><path class="h" d="M88.928,155.305c-.16,2.355-.458,4.684-.854,7.01-.25,1.466-.388,2.973-.776,4.411-.301,1.115-.684,1.886-1.809,2.605-.785.502-1.67.796-2.514,1.18-4.109,1.867-8.189,3.799-12.29,5.685-1.082.498-2.165.995-3.251,1.485-.374.169-.748.334-1.122.501-.61.273.495-.175-.068.026-1.22.436-2.038,1.636-1.676,2.952.324,1.18,1.726,2.115,2.952,1.676,1.621-.58,3.187-1.395,4.75-2.111,2.543-1.167,5.081-2.344,7.62-3.521,1.835-.851,3.672-1.7,5.508-2.549.025-.012.444-.187.442-.199.003.016-1.237.507-.149.08.315-.123.635-.258.942-.395.491-.219.968-.461,1.417-.756,1.621-1.062,2.788-2.481,3.505-4.277.644-1.613.783-3.358,1.069-5.057.489-2.903.906-5.81,1.106-8.748.088-1.295-1.166-2.4-2.4-2.4-1.372,0-2.312,1.102-2.4,2.4h0Z"/><path class="h" d="M136.217,155.382c.286,4.064.737,8.303,1.684,12.277.376,1.577,1.081,3.048,2.177,4.252.565.621,1.259,1.152,1.971,1.593.402.249.825.456,1.256.648.249.111.501.214.753.316.184.078.371.151.56.218l-.536-.227c.329.286.963.444,1.355.628.886.415,1.77.833,2.655,1.251,2.292,1.083,4.582,2.168,6.873,3.252,1.556.736,3.1,1.517,4.68,2.204,1.188.516,2.575.351,3.284-.861.594-1.015.334-2.764-.861-3.284-3.37-1.465-6.66-3.142-9.982-4.713-1.676-.793-3.35-1.591-5.032-2.37-.657-.305-1.35-.539-1.991-.873-.599-.312-1.065-.615-1.501-1.076-.206-.217-.194-.187-.418-.563-.065-.109-.124-.222-.183-.334-.103-.195.02.112-.111-.236-.531-1.41-.641-2.954-.883-4.43-.42-2.551-.77-5.091-.952-7.672-.091-1.293-1.038-2.4-2.4-2.4-1.228,0-2.492,1.1-2.4,2.4h0Z"/><path class="j" d="M114.165,358.938c-27.244-.008-54.899-.022-72.115-.049l.01-.062c.429-2.683,4.085-26.121,5.464-34.885,0,0,2.212-14.063,4.423-28.126l-1.818-12.937c-.736-5.238-11.776-80.979-13.68-89.167,11.546-7.26,30.32-15.233,42.376-19.376,1.737,5.082,19.543,28.156,26.957,37.054,2.319,2.512,6.112,7.398,8.988,11.328.701-.732,1.114-1.161,1.114-1.161,5.556-5.778,32.864-43.08,35.827-48.117l.238-.307c15.371,6.427,28.339,12.664,42.001,20.094,1.829.995,3.658,1.752,5.39,2.749-.007.048-.01.069-.01.069l-3.134,21.283c-3.099,24.416-7.727,54.62-12.877,89.427-.702,4.747,2.641,29.918,5.663,52.193-14.202,0-44.25,0-74.817-.009Z"/><path class="i" d="M8.897,321.494c-2.636-2.594-4.659-6.217-5.636-11.245-1.181-10.435-1.075-17.943-.166-26.371,1.422-13.182,8.004-45.01,17.713-68.445l3-6.58c2.57-5.636,6.47-10.844,8.776-12.534,1.167-.855,2.466-1.728,3.87-2.618,1.61,6.939,9.849,62.849,12.722,82.59,17.767-6.154,43.969-15.769,52.681-18.74,2.269,2.445,17.366,30.999,17.811,35.444-14.815,8.832-53.864,25.529-74.552,32.639-6.984,2.4-26.847,2.174-34.166-2.405-.718-.52-1.404-1.097-2.054-1.736Z"/><path class="h" d="M197.016,195.407c-2.204,14.971-4.213,29.962-6.331,44.945-1.955,13.83-4.012,27.645-6.068,41.46-1.157,7.773-2.315,15.546-3.466,23.321-.52,3.514-.223,6.986.087,10.512,1.294,14.686,3.445,29.309,5.427,43.914.174,1.286,1.823,1.987,2.952,1.676,1.387-.381,1.851-1.663,1.676-2.952-1.787-13.173-3.644-26.352-4.966-39.581-.367-3.67-.886-7.473-.679-11.17.011-.194.031-.387.046-.581-.091,1.215.064-.401.085-.542.073-.49.145-.981.218-1.471.312-2.104.624-4.207.936-6.311.563-3.79,1.127-7.58,1.692-11.37,2.067-13.882,4.14-27.764,6.124-41.658.888-6.218,1.756-12.438,2.591-18.663.383-2.855.759-5.711,1.124-8.568.01-.075.162-1.223.047-.406.003-.019.006-.037.008-.055.011-.078.023-.155.034-.233.066-.443.131-.887.196-1.33l2.895-19.66c.189-1.281-.319-2.579-1.676-2.952-1.13-.311-2.762.386-2.952,1.676h0Z"/><path class="h" d="M41.831,361.346h146.959c3.089,0,3.094-4.8,0-4.8H41.831c-3.089,0-3.094,4.8,0,4.8h0Z"/><path class="h" d="M149.416,174.648c8.806,3.654,17.515,7.545,26.08,11.735,4.077,1.995,8.122,4.055,12.135,6.176,2.1,1.11,4.17,2.287,6.292,3.355,1.997,1.005,4.151,1.867,5.932,3.246,1.024.793,2.396.998,3.394,0,.827-.827,1.031-2.596,0-3.394-3.003-2.325-6.532-3.779-9.86-5.572-3.241-1.745-6.501-3.454-9.783-5.12-6.657-3.38-13.405-6.582-20.227-9.616-4.204-1.869-8.437-3.674-12.687-5.438-1.198-.497-2.639.537-2.952,1.676-.379,1.381.474,2.453,1.676,2.952h0Z"/><path class="h" d="M230.383,226.7c1.795,9.679,2.297,19.498,2.052,29.327-.2,8.003-.511,16.119-1.529,24.067-.719,5.611-2.129,11.978-5.257,16.936-1.411,2.236-3.248,4.162-5.561,5.45-2.601,1.448-5.916,2.033-9.029,1.533-4.447-.715-8.548-3.103-12.021-5.883-3.854-3.085-7.282-6.751-10.287-10.661-.789-1.026-2.065-1.574-3.284-.861-1.01.591-1.656,2.249-.861,3.284,5.682,7.394,12.736,14.699,21.74,17.853,7.268,2.546,15.466.973,20.756-4.76,4.577-4.96,6.725-11.743,7.907-18.258,1.427-7.872,1.714-15.982,2.062-23.957.517-11.849.109-23.662-2.058-35.346-.236-1.275-1.779-1.999-2.952-1.676-1.339.368-1.913,1.673-1.676,2.952h0Z"/><path class="h" d="M78.608,171.877c-8.524,2.912-16.885,6.359-25.064,10.127-4.287,1.974-8.528,4.058-12.664,6.333-3.48,1.914-7.056,3.914-10.159,6.412-1.77,1.425-3.185,3.31-4.497,5.146-1.738,2.432-3.233,5.034-4.487,7.747-.544,1.176-.333,2.586.861,3.284,1.036.606,2.737.321,3.284-.861,1.862-4.027,4.238-8.239,7.515-11.3.15-.14.302-.275.458-.408.31-.265-.315.233.055-.046.34-.257.693-.498,1.043-.741.745-.517,1.502-1.017,2.267-1.505,1.686-1.075,3.411-2.09,5.156-3.068,7.882-4.415,16.15-8.178,24.51-11.588,4.288-1.749,8.616-3.405,12.999-4.903,2.907-.993,1.658-5.631-1.276-4.629h0Z"/><path class="h" d="M45.21,323.304c-1.597,10.155-3.178,20.313-4.769,30.469-.231,1.472-.46,2.945-.694,4.416-.204,1.278.329,2.582,1.676,2.952,1.142.314,2.747-.389,2.952-1.676,1.453-9.108,2.854-18.224,4.28-27.336.394-2.517.788-5.033,1.184-7.549.201-1.279-.327-2.582-1.676-2.952-1.14-.313-2.75.388-2.952,1.676h0Z"/><path class="h" d="M34.127,194.28c.88,3.755,1.391,7.618,2.005,11.422,1.115,6.908,2.177,13.824,3.23,20.742,2.278,14.965,4.497,29.939,6.689,44.917.593,4.051,1.194,8.101,1.765,12.156.181,1.285,1.818,1.988,2.952,1.676,1.382-.38,1.858-1.664,1.676-2.952-1.423-10.115-2.943-20.216-4.44-30.32-2.247-15.154-4.498-30.31-6.913-45.438-.716-4.486-1.297-9.051-2.335-13.478-.704-3.006-5.334-1.734-4.629,1.276h0Z"/><path class="h" d="M98.581,230.211c0-1.633.898-3.33,3.409-3.33,2.344.073,3.295,1.739,3.295,3.602,0,1.36-.905,3.267-3.47,3.267-2.523,0-3.234-2.119-3.234-3.539Z"/><path class="h" d="M100.981,230.211c.002-.196.014-.39.04-.585l-.086.638c.047-.316.126-.62.247-.915l-.242.573c.108-.248.241-.477.406-.692l-.375.486c.143-.177.302-.333.48-.474l-.486.375c.195-.146.402-.265.625-.365l-.573.242c.315-.13.638-.212.975-.259l-.638.086c.385-.046.761-.047,1.145.004l-.638-.086c.303.047.594.122.879.237l-.573-.242c.227.099.439.218.638.364l-.486-.375c.206.16.387.34.548.546l-.375-.486c.155.208.282.429.388.666l-.242-.573c.146.347.238.706.291,1.079l-.086-.638c.045.362.059.725.015,1.088l.086-.638c-.043.305-.121.598-.237.883l.242-.573c-.111.259-.249.5-.418.726l.375-.486c-.153.195-.324.369-.517.526l.486-.375c-.213.164-.439.298-.685.408l.573-.242c-.311.13-.63.213-.962.262l.638-.086c-.374.046-.748.052-1.123.011l.638.086c-.294-.04-.576-.11-.851-.221l.573.242c-.217-.095-.419-.21-.609-.352l.486.375c-.194-.153-.365-.325-.518-.519l.375.486c-.172-.23-.312-.476-.426-.739l.242.573c-.14-.34-.232-.691-.286-1.054l.086.638c-.028-.208-.043-.415-.044-.625-.009-1.255-1.098-2.458-2.4-2.4-1.293.058-2.409,1.055-2.4,2.4.014,2.062.968,4.304,2.889,5.276,2.26,1.144,5.467.825,7.162-1.191.666-.792,1.184-1.717,1.34-2.753.164-1.094.155-2.249-.246-3.298-.472-1.234-1.207-2.285-2.364-2.969-1.299-.768-2.786-.881-4.245-.669-1.477.215-2.696,1.074-3.559,2.26-.685.941-.966,2.199-.975,3.344-.01,1.256,1.111,2.458,2.4,2.4,1.309-.059,2.389-1.054,2.4-2.4Z"/><path class="h" d="M98.581,338.49c0-1.633.898-3.33,3.409-3.33,2.344.073,3.295,1.739,3.295,3.602,0,1.36-.905,3.267-3.47,3.267-2.523,0-3.234-2.119-3.234-3.539Z"/><path class="h" d="M100.981,338.49c.002-.196.014-.39.04-.585l-.086.638c.047-.316.126-.62.247-.915l-.242.573c.108-.248.241-.477.406-.692l-.375.486c.143-.177.302-.333.48-.474l-.486.375c.195-.146.402-.265.625-.365l-.573.242c.315-.13.638-.212.975-.259l-.638.086c.385-.046.761-.047,1.145.004l-.638-.086c.303.047.594.122.879.237l-.573-.242c.227.099.439.218.638.364l-.486-.375c.206.16.387.34.548.546l-.375-.486c.155.208.282.429.388.666l-.242-.573c.146.347.238.706.291,1.079l-.086-.638c.045.362.059.725.015,1.088l.086-.638c-.043.305-.121.598-.237.883l.242-.573c-.111.259-.249.5-.418.726l.375-.486c-.153.195-.324.369-.517.526l.486-.375c-.213.164-.439.298-.685.408l.573-.242c-.311.13-.63.213-.962.262l.638-.086c-.374.046-.748.052-1.123.011l.638.086c-.294-.04-.576-.11-.851-.221l.573.242c-.217-.095-.419-.21-.609-.352l.486.375c-.194-.153-.365-.325-.518-.519l.375.486c-.172-.23-.312-.476-.426-.739l.242.573c-.14-.34-.232-.691-.286-1.054l.086.638c-.028-.208-.043-.415-.044-.625-.009-1.255-1.098-2.458-2.4-2.4-1.293.058-2.409,1.055-2.4,2.4.014,2.062.968,4.304,2.889,5.276,2.26,1.144,5.467.825,7.162-1.191.666-.792,1.184-1.717,1.34-2.753.164-1.094.155-2.249-.246-3.298-.472-1.234-1.207-2.285-2.364-2.969-1.299-.768-2.786-.881-4.245-.669-1.477.215-2.696,1.074-3.559,2.26-.685.941-.966,2.199-.975,3.344-.01,1.256,1.111,2.458,2.4,2.4,1.309-.059,2.389-1.054,2.4-2.4Z"/><path class="h" d="M98.581,305.433c0-1.633.898-3.33,3.409-3.33,2.344.073,3.295,1.739,3.295,3.602,0,1.36-.905,3.267-3.47,3.267-2.523,0-3.234-2.119-3.234-3.539Z"/><path class="h" d="M100.981,305.433c.002-.196.014-.39.04-.585l-.086.638c.047-.316.126-.62.247-.915l-.242.573c.108-.248.241-.477.406-.692l-.375.486c.143-.177.302-.333.48-.474l-.486.375c.195-.146.402-.265.625-.365l-.573.242c.315-.13.638-.212.975-.259l-.638.086c.385-.046.761-.047,1.145.004l-.638-.086c.303.047.594.122.879.237l-.573-.242c.227.099.439.218.638.364l-.486-.375c.206.16.387.34.548.546l-.375-.486c.155.208.282.429.388.666l-.242-.573c.146.347.238.706.291,1.079l-.086-.638c.045.362.059.725.015,1.088l.086-.638c-.043.305-.121.598-.237.883l.242-.573c-.111.259-.249.5-.418.726l.375-.486c-.153.195-.324.369-.517.526l.486-.375c-.213.164-.439.298-.685.408l.573-.242c-.311.13-.63.213-.962.262l.638-.086c-.374.046-.748.052-1.123.011l.638.086c-.294-.04-.576-.11-.851-.221l.573.242c-.217-.095-.419-.21-.609-.352l.486.375c-.194-.153-.365-.325-.518-.519l.375.486c-.172-.23-.312-.476-.426-.739l.242.573c-.14-.34-.232-.691-.286-1.054l.086.638c-.028-.208-.043-.415-.044-.625-.009-1.255-1.098-2.458-2.4-2.4-1.293.058-2.409,1.055-2.4,2.4.014,2.062.968,4.304,2.889,5.276,2.26,1.144,5.467.825,7.162-1.191.666-.792,1.184-1.717,1.34-2.753.164-1.094.155-2.249-.246-3.298-.472-1.234-1.207-2.285-2.364-2.969-1.299-.768-2.786-.881-4.245-.669-1.477.215-2.696,1.074-3.559,2.26-.685.941-.966,2.199-.975,3.344-.01,1.256,1.111,2.458,2.4,2.4,1.309-.059,2.389-1.054,2.4-2.4Z"/><path class="h" d="M98.581,259.211c0-1.633.898-3.33,3.409-3.33,2.344.073,3.295,1.739,3.295,3.602,0,1.36-.905,3.267-3.47,3.267-2.523,0-3.234-2.119-3.234-3.539Z"/><path class="h" d="M100.981,259.211c.002-.196.014-.39.04-.585l-.086.638c.047-.316.126-.62.247-.915l-.242.573c.108-.248.241-.477.406-.692l-.375.486c.143-.177.302-.333.48-.474l-.486.375c.195-.146.402-.265.625-.365l-.573.242c.315-.13.638-.212.975-.259l-.638.086c.385-.046.761-.047,1.145.004l-.638-.086c.303.047.594.122.879.237l-.573-.242c.227.099.439.218.638.364l-.486-.375c.206.16.387.34.548.546l-.375-.486c.155.208.282.429.388.666l-.242-.573c.146.347.238.706.291,1.079l-.086-.638c.045.362.059.725.015,1.088l.086-.638c-.043.305-.121.598-.237.883l.242-.573c-.111.259-.249.5-.418.726l.375-.486c-.153.195-.324.369-.517.526l.486-.375c-.213.164-.439.298-.685.408l.573-.242c-.311.13-.63.213-.962.262l.638-.086c-.374.046-.748.052-1.123.011l.638.086c-.294-.04-.576-.11-.851-.221l.573.242c-.217-.095-.419-.21-.609-.352l.486.375c-.194-.153-.365-.325-.518-.519l.375.486c-.172-.23-.312-.476-.426-.739l.242.573c-.14-.34-.232-.691-.286-1.054l.086.638c-.028-.208-.043-.415-.044-.625-.009-1.255-1.098-2.458-2.4-2.4-1.293.058-2.409,1.055-2.4,2.4.014,2.062.968,4.304,2.889,5.276,2.26,1.144,5.467.825,7.162-1.191.666-.792,1.184-1.717,1.34-2.753.164-1.094.155-2.249-.246-3.298-.472-1.234-1.207-2.285-2.364-2.969-1.299-.768-2.786-.881-4.245-.669-1.477.215-2.696,1.074-3.559,2.26-.685.941-.966,2.199-.975,3.344-.01,1.256,1.111,2.458,2.4,2.4,1.309-.059,2.389-1.054,2.4-2.4Z"/><path class="h" d="M149.639,172.228c-1.252,2.115-2.73,4.112-4.144,6.12-2.51,3.563-5.062,7.097-7.629,10.619-3.004,4.123-6.032,8.228-9.086,12.313-1.478,1.977-2.962,3.95-4.456,5.915-.696.916-1.394,1.831-2.095,2.744-.719.937-.962,1.252-1.729,2.237-2.028,2.603-4.028,5.294-6.312,7.683-2.135,2.233,1.254,5.632,3.394,3.394,1.956-2.045,3.683-4.329,5.428-6.552,2.902-3.697,5.746-7.441,8.568-11.2,5.817-7.748,11.56-15.556,17.164-23.46,1.718-2.423,3.527-4.831,5.042-7.39,1.577-2.664-2.571-5.082-4.145-2.423h0Z"/><path class="h" d="M76.506,174.99c.972,2.711,2.739,5.162,4.339,7.527,2.543,3.758,5.229,7.419,7.948,11.052,5.236,6.996,10.539,14.002,16.264,20.607,3.142,3.625,6.038,7.486,8.825,11.388.535.749,1.066,1.502,1.579,2.267.163.243.313.595.525.797.311.298-.048-.155-.064-.252-.197-1.158-.073-.69-.067-.486.012.374.064.752.086,1.126.206,3.498.243,7.009.311,10.512.265,13.58.372,27.163.481,40.744.126,15.684.218,31.369.293,47.054.047,9.827.094,19.655.11,29.483,0,.408.001.816.001,1.225,0,3.089,4.8,3.094,4.8,0,0-8.66-.051-17.321-.09-25.981-.069-15.417-.156-30.834-.272-46.25-.107-14.227-.219-28.455-.459-42.681-.071-4.195-.133-8.392-.304-12.584-.037-.909-.067-1.822-.169-2.727-.18-1.6-1.388-2.933-2.294-4.212-1.415-1.998-2.877-3.964-4.365-5.909-5.285-6.911-11.03-13.454-16.344-20.349-5.294-6.869-10.771-13.792-15.231-21.246-.313-.524-.62-1.052-.902-1.593-.114-.218-.215-.442-.328-.661-.284-.55.191.54-.047-.124-.437-1.22-1.635-2.038-2.952-1.676-1.179.324-2.116,1.726-1.676,2.952h0Z"/><path class="i" d="M104.991,262.778c2.032-2.313,9.674-7.522,11.403-9.733,1.732-2.216,4.139-5.408,7.083-6.761,6.048-2.78,16.211-2.106,21.087-1.771,2.559.176,8.196,1,10.107,3.519,1.111,1.465.101,4.539-2.421,5.548l-3.866,1.547c6.77-.734,13.748-2.338,19.799-3.56,5.658-1.142,12.404-4.387,16.595-.362,2.644-.737,6.8-.527,8.732.559,2.152.942,3.426,4.958,1.211,7.868-1.366,1.795-15.64,7.804-20.94,9.669-5.763,2.028-6.232,1.731-11.061,3.662-6.107,2.488-10.889,2.253-18.561,2.01-8.854-.281-19.122,6.493-26.792,10.401l-12.374-22.597Z"/><path class="h" d="M106.688,264.475c2.412-2.676,5.623-4.692,8.401-6.961,1.185-.968,2.349-1.944,3.298-3.151,1.399-1.78,2.828-3.689,4.665-5.046,3.392-2.504,8.457-2.644,12.502-2.715,2.125-.038,4.251.027,6.373.144,1.522.084,3.301.178,4.534.374,1.954.311,4.226.711,5.841,1.914-.095-.071.708.791.398.328-.108-.162-.028.388.015.014-.054.462.098-.101-.031.423-.198.802-.786,1.328-1.646,1.71-1.185.526-1.464,2.253-.861,3.284.714,1.22,2.095,1.39,3.284.861,2.386-1.06,4.119-3.641,4.055-6.277-.062-2.541-2.046-4.276-4.205-5.266-4.028-1.847-8.565-2.058-12.926-2.24-5.102-.213-10.498-.19-15.426,1.306-2.679.813-4.941,2.2-6.908,4.193-1.529,1.55-2.685,3.438-4.257,4.936-3.288,3.135-7.453,5.394-10.5,8.775-2.063,2.29,1.321,5.695,3.394,3.394h0Z"/><path class="h" d="M138.036,257.801c5.948.46,11.936-.318,17.79-1.335,5.433-.944,10.94-1.953,16.268-3.385,2.418-.65,4.901-1.458,7.431-1.431.865.009,1.721.131,2.505.52.402.2.707.462,1.051.734,1.009.798,1.811.705,2.97.464,1.849-.384,4.43-.33,6.015.349.706.302.921.505,1.207,1.263.321.853.275,1.817-.116,2.64-.18.378-.299.387-.305.505-.003.066-.667.487.139-.089-.073.052-.145.111-.221.159-.567.354-1.128.707-1.715,1.028-1.542.843-3.135,1.596-4.731,2.33-3.563,1.639-7.183,3.164-10.845,4.571-3.541,1.361-7.203,2.299-10.779,3.542-2.313.804-4.532,1.811-6.929,2.364s-4.818.682-7.259.689c-2.953.009-5.959-.353-8.902-.042-3.081.326-6.037,1.164-8.91,2.308-5.758,2.291-11.045,5.503-16.546,8.319-2.75,1.408-.324,5.551,2.423,4.145,7.131-3.651,14.15-8.479,22.189-9.849,3.918-.668,8.032.047,11.995-.129s7.643-1.049,11.342-2.484c2.822-1.095,5.751-1.829,8.619-2.786,2.722-.908,5.392-1.958,8.045-3.049,3.042-1.252,6.068-2.548,9.044-3.949,2.096-.987,4.401-1.957,6.186-3.471,3.086-2.619,2.912-8.055.263-10.886-2.799-2.991-8.484-2.894-12.121-1.951l2.335.617c-3.164-2.889-7.184-2.977-11.184-2.177-3.808.761-7.545,1.874-11.353,2.665-8.486,1.763-17.18,3.678-25.9,3.004-1.294-.1-2.4,1.175-2.4,2.4,0,1.382,1.102,2.3,2.4,2.4h0Z"/><path class="h" d="M154.719,266.417c4.484-1.385,9.016-2.63,13.539-3.88,4.587-1.267,9.203-2.677,13.886-3.555,1.275-.239,1.999-1.777,1.676-2.952-.367-1.337-1.674-1.916-2.952-1.676-4.683.878-9.299,2.288-13.886,3.555-4.523,1.25-9.055,2.495-13.539,3.88-2.942.909-1.687,5.544,1.276,4.629h0Z"/><path class="i" d="M45.117,325.634c20.687-7.11,59.737-23.807,74.552-32.639-.444-4.444-15.542-32.998-17.811-35.444-11.115,3.791-50.702,18.397-64.925,22.813l8.184,45.27Z"/><path class="h" d="M23.027,204.877c-7.979,15.587-12.91,32.815-16.929,49.792-3.5,14.785-6.586,30.016-6.033,45.284.19,5.249.304,10.837,2.295,15.761,1.545,3.822,4.114,7.672,7.747,9.806,2.86,1.681,6.287,2.474,9.525,3.019,3.951.666,7.963.979,11.968,1.001,3.659.021,7.343-.185,10.952-.815,2.99-.522,5.825-1.682,8.664-2.721,7.546-2.761,15.013-5.739,22.434-8.816,14.793-6.134,29.68-12.449,43.745-20.141,1.172-.641,2.336-1.299,3.485-1.982.665-.395,1.282-1.255,1.189-2.072-.237-2.087-1.136-4.031-1.952-5.946-1.199-2.817-2.522-5.582-3.874-8.328-2.918-5.931-5.979-11.806-9.264-17.542-1.027-1.794-2.026-3.779-3.425-5.324-.541-.597-1.569-.879-2.335-.617-17.541,5.99-34.879,12.568-52.396,18.631-4.16,1.44-8.325,2.874-12.529,4.182-2.94.915-1.685,5.55,1.276,4.629,8.409-2.616,16.705-5.617,25.002-8.564,9.675-3.436,19.33-6.928,28.996-10.389,3.636-1.302,7.271-2.611,10.927-3.86l-2.335-.617c.409.451-.369-.571.074.094.212.318.427.632.631.954.545.858,1.061,1.735,1.571,2.615,1.454,2.507,2.842,5.053,4.206,7.61,3.07,5.751,6.066,11.566,8.71,17.527.142.32.282.642.422.963.054.123.106.247.159.37-.217-.509.01.024.057.138.237.578.471,1.158.687,1.745.155.422.306.847.432,1.279.094.321.278,1.506.158.452l1.189-2.072c-5.51,3.275-11.304,6.085-17.092,8.83-7.429,3.523-14.948,6.859-22.511,10.085s-15.174,6.328-22.85,9.267c-3.246,1.243-6.503,2.455-9.782,3.609-1.291.454-2.568.903-3.909,1.187-1.553.329-2.419.431-3.952.572-7.169.657-14.832.442-21.788-1.507-1.529-.428-2.576-.787-3.757-1.427-1.396-.757-2.599-1.988-3.574-3.23-2.856-3.637-3.648-8.04-4.025-12.524-.406-4.837-.538-9.692-.309-14.542.104-2.196.278-4.389.502-6.576.073-.709.151-1.417.237-2.124.033-.271.068-.543.102-.814.018-.14.036-.28.055-.42-.073.55.025-.177.032-.229.945-6.682,2.236-13.314,3.69-19.903,3.647-16.524,8.161-33.211,15.139-48.671.792-1.755,1.625-3.491,2.502-5.204,1.405-2.745-2.735-5.176-4.145-2.423h0Z"/><g id="e"><path class="i" d="M220.217,218.739c.369-7.018,7.679-27.334,7.679-27.334,1.228-2.992,2.796-6.26,5.823-7.402,1.729-.653,3.758-.451,5.324.529,1.567.98,2.635,2.717,2.804,4.557.165,1.798-.479,3.565-1.174,5.231-.818,1.958-1.723,3.88-2.711,5.758,1.667-.897,3.982-.533,5.446.759,1.212,1.069,1.899,2.597,2.155,4.209.116.729.143,1.475.092,2.204-.165,2.341-1.038,4.567-1.901,6.75-.701,1.774-1.403,3.548-2.104,5.322-.586,1.482-1.212,3.022-2.406,4.077,0,0-.044.038-.123.102.883.201,1.843.663,2.351,1.322.698.903,1.28,2.088,1.4,3.223.147,1.398-.259,2.969-1.062,4.123-.646.928-3.921,5.49-5.234,6.655-1.313,1.165-2.846,1.984-4.588,1.77-.531-.065-1.406-.409-1.833-.731,0,0-10.826-4.234-9.937-21.123Z"/><path class="h" d="M230.21,192.043c.977-2.362,2.458-5.858,5.441-6.016,1.381-.073,2.66.633,3.34,1.831.83,1.462.407,3.064-.132,4.556-2.56,7.082-6.918,13.786-11.8,19.474-.844.983-.966,2.429,0,3.394.864.864,2.546.988,3.394,0,4.987-5.81,9.118-12.299,12.123-19.348,1.539-3.609,2.658-7.629.155-11.116-2.324-3.237-6.594-4.466-10.267-2.873s-5.439,5.333-6.882,8.822c-.496,1.198.536,2.639,1.676,2.952,1.379.379,2.455-.473,2.952-1.676h0Z"/><path class="h" d="M238.479,225.817c.161.039.693.207.677.199-.249-.115.723.399.295.163.172.189.217.228.137.116-.084-.123-.043-.066.121.173.151.233.289.47.422.713.435.795.462,1.561.253,2.378-.309,1.207-1.468,2.566-2.328,3.725-.268.362-.539.722-.812,1.08-.027.036-.456.587-.14.184-.149.19-.297.38-.448.568-.469.588-.944,1.18-1.472,1.717-.604.614-1.238,1.059-1.869,1.256-.105.033-.824.149-.518.129-.111.007-.842-.057-.36.03-.221-.04-.445-.11-.654-.193.35.139-.334-.21-.414-.264-1.068-.735-2.664-.199-3.284.861-.696,1.19-.21,2.547.861,3.284,2.222,1.529,5.156,1.312,7.418.007,1.592-.918,2.755-2.252,3.876-3.671,2.306-2.921,5.403-6.221,5.027-10.228-.3-3.192-2.317-6.078-5.512-6.854-1.259-.306-2.602.4-2.952,1.676-.336,1.224.412,2.645,1.676,2.952h0Z"/><path class="h" d="M247.876,204.408c-.462-2.566-1.904-5.09-4.274-6.329-2.099-1.098-4.707-1.226-6.822-.098-3.975,2.12-4.942,7.658-6.275,11.563-.806,2.361-1.732,4.704-2.214,7.16-.25,1.273-.518,2.613-.279,3.904s.937,2.441,1.759,3.44c3.587,4.359,10.116,3.696,12.886-1.157,1.52-2.663,2.445-5.792,3.562-8.64,1.15-2.932,2.171-6.014,1.743-9.206-.172-1.284-.98-2.4-2.4-2.4-1.163,0-2.574,1.106-2.4,2.4.558,4.158-1.693,8.239-3.18,12-.591,1.494-1.107,3.613-2.436,4.655-.962.755-2.36.696-3.326.005-.549-.392-1.031-.935-1.33-1.544-.269-.546-.202-.782-.078-1.571.304-1.938.944-3.8,1.589-5.645.578-1.655,1.138-3.316,1.699-4.977.429-1.272.769-2.701,1.391-3.887.732-1.397,1.722-2.33,3.106-2.041,1.709.357,2.371,2.082,2.652,3.643.23,1.276,1.784,1.997,2.952,1.676,1.344-.369,1.907-1.672,1.676-2.952Z"/><path class="i" d="M176.641,233.048c2.46-20.704,6.769-58.158,9.262-79.129.44-3.698,3.791-6.33,7.488-5.882,11.849,1.437,27.866,3.384,38.08,4.624,3.686.447,6.31,3.791,5.871,7.477-2.828,23.715-6.878,57.713-9.433,78.919-.444,3.684-3.778,6.308-7.463,5.875-10.627-1.248-27.3-3.166-37.91-4.412-3.696-.434-6.334-3.777-5.895-7.473Z"/><path class="h" d="M179.041,233.048c2.017-16.98,3.977-33.966,5.956-50.95.96-8.241,1.922-16.481,2.896-24.72.187-1.579.137-3.398.918-4.79.787-1.403,2.292-2.234,3.892-2.199,2.269.049,4.595.522,6.847.796,2.469.3,4.938.6,7.408.899,4.95.601,9.9,1.203,14.85,1.804,2.226.27,4.452.541,6.678.811,1.648.2,3.52.173,4.881,1.25,1.447,1.145,1.729,2.805,1.533,4.536-.236,2.093-.499,4.184-.748,6.275-.554,4.644-1.108,9.289-1.661,13.933-2.22,18.613-4.438,37.227-6.677,55.838-.199,1.651-.22,3.37-1.403,4.661-1.252,1.366-2.871,1.469-4.602,1.266-4.359-.511-8.719-1.018-13.079-1.524-4.807-.558-9.615-1.115-14.422-1.673-2.209-.257-4.417-.514-6.626-.772-1.66-.194-3.649-.136-5.027-1.222-1.332-1.049-1.765-2.589-1.613-4.219.121-1.292-1.189-2.4-2.4-2.4-1.398,0-2.279,1.104-2.4,2.4-.487,5.219,3.478,9.274,8.454,9.891,4.711.585,9.432,1.101,14.147,1.648,5.056.587,10.112,1.172,15.167,1.76,2.272.264,4.544.529,6.816.795,2.371.278,4.512.29,6.696-.835,2.103-1.083,3.665-3.059,4.405-5.284.666-2.002.672-4.369.923-6.459.554-4.61,1.107-9.22,1.659-13.83,1.233-10.299,2.463-20.598,3.692-30.897,1.167-9.783,2.395-19.562,3.5-29.352.564-4.994-2.919-9.51-7.91-10.181-4.722-.634-9.462-1.153-14.192-1.728-5.342-.649-10.685-1.298-16.027-1.947-2.481-.301-4.962-.602-7.442-.903-2.338-.284-4.684.051-6.657,1.431-1.952,1.365-3.399,3.417-3.835,5.78-.361,1.956-.491,3.982-.724,5.957-.507,4.292-1.01,8.585-1.511,12.877-2.172,18.581-4.317,37.166-6.507,55.746-.217,1.844-.435,3.688-.654,5.531-.153,1.289,1.213,2.4,2.4,2.4,1.424,0,2.246-1.107,2.4-2.4Z"/><path class="h" d="M208.674,161.145c2.262.25,4.523.497,6.785.747.572.063,1.308-.314,1.697-.703.416-.416.73-1.099.703-1.697-.028-.621-.232-1.264-.703-1.697-.497-.457-1.029-.629-1.697-.703-2.262-.25-4.523-.497-6.785-.747-.572-.063-1.308.314-1.697.703-.416.416-.73,1.099-.703,1.697.028.621.232,1.264.703,1.697.497.457,1.029.629,1.697.703h0Z"/><path class="h" d="M193.71,234.634c5.727.634,11.456,1.259,17.183,1.892,1.29.143,2.4-1.205,2.4-2.4,0-1.416-1.106-2.257-2.4-2.4-5.727-.634-11.456-1.259-17.183-1.892-1.29-.143-2.4,1.205-2.4,2.4,0,1.416,1.106,2.257,2.4,2.4h0Z"/></g><g id="f"><path class="k" d="M114.283,179.068l-6.117.296-1.185,3.097c-.853,1.458-1.588,5.178-1.372,8.522l-1.169.389c-6.319,2.103-15.3,7.269-16.942,10.317-1.172,4.69.682,20.44,1.859,23.114,4.5-1.038,22.796-10.404,23.935-14.203.146-.486.281-1.259.404-2.16.501,1.202.848,2.034.848,2.034,1.153,2.77,3.332,9.534,5.065,11.743,1.568,1.998,16.462,4.494,19.419,4.95,2.341.361,5.999,1.516,6.721-1.325.515-2.026-3.668-21.123-5.678-23.58-2.136-2.61-6.49-5.876-12.296-8.053,0,0-.948-.356-2.33-.874.183-3.212-.712-7.841-1.756-10.581l-1.004-3.538-8.402-.148Z"/><path class="h" d="M103.803,189.057c-3.702,1.252-7.284,2.961-10.643,4.954-2.646,1.57-5.998,3.498-7.602,6.245-.644,1.103-.692,2.525-.771,3.775-.087,1.373-.073,2.753-.029,4.128.104,3.187.395,6.371.803,9.533.324,2.508.487,5.388,1.482,7.749.517,1.228,1.551,2.012,2.952,1.676,2.051-.491,4.029-1.442,5.937-2.313,2.675-1.22,5.297-2.562,7.864-3.995,2.443-1.363,4.863-2.803,7.12-4.461,1.68-1.235,3.663-2.647,4.501-4.635.625-1.483.694-3.235.866-4.817.185-1.699.32-3.403.439-5.108.091-1.295-1.168-2.4-2.4-2.4-1.374,0-2.309,1.102-2.4,2.4-.188,2.687-.367,5.379-.873,7.908-.092.459-.192.258.058-.022-.05.055-.199.281-.204.356-.027.378.212-.212.006.005-.145.152-.278.315-.425.466-.298.307-.617.594-.942.872-.21.179-.424.354-.64.526-.015.012-.299.23-.105.082.206-.158-.319.234-.303.223-4.355,3.165-9.19,5.741-14.054,8.026-2.057.967-3.392,1.702-5.72,2.259l2.952,1.676c-.728-1.728-.92-3.764-1.188-5.601-.364-2.494-.669-5.58-.83-8.355-.082-1.41-.136-2.824-.127-4.237.004-.572.017-1.144.048-1.715.014-.257.031-.514.053-.77.012-.137.027-.273.04-.409.045-.479-.05.261.001-.02.035-.194.063-.389.109-.581-.133.549.113-.056.01.06-.166.187.289-.32.368-.404.226-.238.464-.464.708-.684,1.078-.972,2.264-1.768,3.507-2.553,3.351-2.116,6.951-3.94,10.708-5.211,2.911-.984,1.662-5.622-1.276-4.629h0Z"/><path class="h" d="M104.756,204.494c1.281-.912,2.429-1.978,3.489-3.136.956-1.045,1.869-2.152,2.665-3.323.336-.494.396-1.289.242-1.849-.153-.557-.584-1.16-1.103-1.434-.557-.294-1.232-.442-1.849-.242s-1.068.564-1.434,1.103c-.218.32-.448.631-.685.937l.375-.486c-1.242,1.599-2.638,3.146-4.242,4.391l.486-.375c-.121.092-.242.183-.366.271-.521.371-.928.799-1.103,1.434-.158.574-.087,1.339.242,1.849.33.512.822.964,1.434,1.103.597.136,1.33.128,1.849-.242h0Z"/><path class="h" d="M127.137,196.524c3.499,1.337,6.948,3.23,9.695,5.805.486.455.927.945,1.377,1.434.427.464-.154-.381-.026-.026.049.137.156.269.223.4.074.142.135.288.205.431.177.36-.159-.441.034.087.174.476.355.948.516,1.428,1.621,4.817,2.737,9.857,3.649,14.852.102.556.199,1.113.289,1.671.033.203.065.406.095.61.019.128.037.257.057.385.071.474-.035-.301-.001-.009.073.63.059,1.281.14,1.905.059.459.06-.455.045-.291-.038.406-.212.21.026.065.358-.219-.108.016-.302.047.214-.035-.548-.014-.73-.025-.972-.055-2.124-.335-3.22-.511-4.85-.777-9.733-1.64-14.466-2.966-.638-.179-1.274-.369-1.901-.584-.255-.087-.506-.184-.759-.276-.539-.196.257.182-.298-.136-.138-.079-.34-.23-.489-.272-.32-.09.451.343.066.04.454.357-.008-.034-.175-.308-.208-.341-.395-.695-.575-1.051-1.522-3.012-2.473-6.276-3.754-9.391-.493-1.198-1.594-2.05-2.952-1.676-1.133.311-2.172,1.746-1.676,2.952,1.347,3.274,2.407,6.66,3.914,9.87.523,1.115,1.115,2.367,2.05,3.198.892.793,2.067,1.218,3.174,1.61,5.158,1.825,10.754,2.676,16.139,3.551,2.886.469,6.639,1.721,9.112-.479,1.978-1.759,1.602-4.135,1.273-6.446-.779-5.472-2.05-10.962-3.666-16.246-.753-2.463-1.537-4.737-3.362-6.612-3.426-3.518-7.907-5.928-12.451-7.664-1.211-.463-2.632.512-2.952,1.676-.371,1.352.461,2.488,1.676,2.952h0Z"/><path class="h" d="M116.286,202.565c1.357,1.116,2.579,2.417,3.794,3.682,1.363,1.419,2.727,2.859,3.944,4.408.353.45,1.155.703,1.697.703.589,0,1.292-.261,1.697-.703.42-.457.732-1.058.703-1.697-.03-.678-.287-1.168-.703-1.697-1.217-1.549-2.581-2.989-3.944-4.408-1.215-1.265-2.438-2.566-3.794-3.682-.505-.416-1.019-.703-1.697-.703-.589,0-1.292.261-1.697.703-.809.882-1.035,2.542,0,3.394h0Z"/><path class="h" d="M104.91,181.25c-.732,1.295-1.109,2.799-1.351,4.256-.304,1.828-.473,3.691-.347,5.543s.459,3.747,1.37,5.392c.833,1.504,2.034,2.332,3.658,2.793,3.234.918,6.889.856,10.209.574,1.787-.152,3.601-.378,5.333-.856.736-.203,1.605-.447,2.253-.845.936-.575,1.356-1.744,1.562-2.776.453-2.272.254-4.582-.063-6.856-.301-2.158-.766-4.314-1.531-6.358-.454-1.213-1.623-2.042-2.952-1.676-1.165.32-2.133,1.732-1.676,2.952.387,1.033.69,2.095.941,3.168.132.563.249,1.129.352,1.697.06.331.112.662.166.994.042.296.048.332.019.109.016.124.031.248.045.372.13,1.124.205,2.26.157,3.392-.012.275-.037.547-.06.821.034-.403.024-.14-.026.109-.043.218-.138.442-.167.66-.055.409.247-.443-.05.109l.861-.861c-.295.137.482-.161-.129.051-.184.064-.368.128-.554.186-.502.156-1.013.281-1.527.389-.469.098-.941.173-1.413.252-.465.077-.095.016,0,.004-.144.019-.289.036-.434.053-.331.039-.664.072-.996.101-2.299.203-4.633.229-6.93-.001-.101-.01-.784-.091-.448-.047.34.045-.308-.049-.402-.066-.449-.078-.896-.171-1.334-.299-.154-.045-.306-.11-.46-.149-.323-.082.497.269.021.002-.158-.089-.613-.297.027.046-.063-.034-.11-.135-.162-.183-.178-.164.206.392.03.014-.095-.203-.228-.415-.337-.612-.194-.351.091.331-.068-.195-.164-.542-.292-1.076-.403-1.632-.084-.417.017.311-.038-.296-.023-.249-.044-.498-.058-.747-.034-.616-.036-1.233-.013-1.849.023-.61.078-1.215.143-1.821.05-.472.011-.072-.004.02.026-.167.051-.334.08-.5.049-.287.104-.574.165-.859.11-.507.239-1.011.403-1.504.062-.186.141-.367.202-.554-.227.692-.029.096.079-.095,1.521-2.693-2.624-5.115-4.145-2.423h0Z"/></g><path class="i" d="M97.515,193.884c-7.766-7.407-12.859-12.419-18.478-21.563,2.043-3.941,4.778-7.957,8.254-11.152,6.775,6.867,15.418,12.758,23.684,16.506.49.222,1.037.494,1.195,1.009.137.446-.071.917-.274,1.338-.307.636-11.148,10.788-14.382,13.863Z"/><path class="i" d="M132.774,195.365c6.641-7.444,11.16-13.9,16.778-23.045-2.043-3.941-4.778-7.957-8.254-11.152-6.775,6.867-15.418,12.758-23.684,16.506-.49.222-1.037.494-1.195,1.009-.137.446.071.917.274,1.338.307.636,12.278,12.122,16.081,15.344Z"/><path class="h" d="M99.212,192.187c-3.395-3.24-6.798-6.485-9.921-9.992-3.069-3.445-5.758-7.162-8.181-11.085v2.423c2.074-3.961,4.599-7.607,7.879-10.666h-3.394c3.704,3.731,7.795,7.076,12.131,10.047,2.09,1.432,4.243,2.773,6.456,4.008,1.043.583,2.1,1.142,3.169,1.676.554.277,1.112.547,1.673.809.296.139.593.275.89.412.101.044.199.094.293.151.23.131.194.106-.108-.074l-.328-1.211c.048.37.267-.157.284-.168-.131.085-.255.279-.364.394-.435.459-.888.901-1.339,1.344-1.366,1.343-2.753,2.666-4.14,3.987-2.79,2.657-5.6,5.292-8.393,7.945-2.244,2.132,1.154,5.522,3.394,3.394,4.131-3.926,8.315-7.798,12.385-11.788,1.817-1.782,4.289-4.124,2.32-6.845-.662-.915-1.673-1.311-2.657-1.774-1.068-.503-2.123-1.032-3.165-1.586-2.156-1.145-4.26-2.39-6.305-3.723-4.62-3.012-8.915-6.479-12.801-10.394-.936-.943-2.447-.883-3.394,0-3.032,2.828-5.561,6.197-7.62,9.788-.479.835-1.163,1.78-1.293,2.742-.157,1.163.625,2.092,1.217,3.017,1.025,1.602,2.1,3.171,3.233,4.698,4.321,5.822,9.456,10.871,14.688,15.863,2.235,2.132,5.635-1.257,3.394-3.394Z"/><path class="h" d="M134.471,197.062c4.88-5.486,9.314-11.327,13.328-17.474,1.05-1.607,2.076-3.23,3.088-4.861.738-1.19,1.408-2.188.737-3.618-.357-.761-.798-1.493-1.223-2.219-2.018-3.452-4.479-6.688-7.406-9.419-.945-.882-2.454-.947-3.394,0-3.628,3.654-7.61,6.924-11.887,9.79-2.097,1.405-4.257,2.719-6.474,3.926-1.104.601-2.222,1.176-3.354,1.721-1.064.513-2.211.903-3.027,1.797-2.42,2.651.344,5.336,2.171,7.153,2.244,2.232,4.532,4.419,6.831,6.594,2.368,2.239,4.732,4.498,7.215,6.61.987.839,2.426.968,3.394,0,.86-.86.992-2.551,0-3.394-3.267-2.779-6.359-5.778-9.457-8.742-1.541-1.475-3.077-2.957-4.59-4.461-.49-.487-.98-.974-1.455-1.476-.133-.14-.256-.313-.403-.437-.185-.156.2.537.252.132l-.328,1.211c-.106.217-.381.186.037-.007.285-.131.569-.264.853-.396.561-.26,1.119-.528,1.673-.802,1.069-.53,2.125-1.086,3.169-1.666,2.277-1.264,4.493-2.639,6.642-4.111,4.336-2.971,8.427-6.316,12.131-10.047h-3.394c3.28,3.059,5.804,6.706,7.879,10.666v-2.423c-4.898,7.96-10.184,15.568-16.403,22.559-2.047,2.301,1.336,5.708,3.394,3.394Z"/><g id="g"><path class="h" d="M106.308,131.845c3.187,1.683,6.62,2.384,10.223,2.361,3.638-.024,7.341-.728,10.258-3.001,1.023-.797.837-2.557,0-3.394-1.01-1.01-2.368-.799-3.394,0,.71-.553.095-.086-.087.031-.208.133-.423.257-.641.372-.151.079-.904.394-.306.166-.294.112-.585.225-.885.321-1.877.603-3.281.717-5.279.705-1.955-.012-3.209-.132-5.036-.678-.324-.097-.64-.213-.959-.322-.104-.036-.204-.09-.309-.12.591.173.17.076.013.002-.397-.187-.788-.382-1.175-.587-1.146-.605-2.61-.291-3.284.861-.634,1.084-.289,2.676.861,3.284h0Z"/><path class="h" d="M115.446,107.588c.452,1.724.886,3.476,1.145,5.24l-.086-.638c.031.242.044.48.02.723l.086-.638c-.017.113-.042.218-.08.325l.242-.573c-.034.076-.069.14-.115.209l.375-.486c-.054.065-.105.116-.171.169l.486-.375c-.132.085-.272.154-.415.22l.573-.242c-.228.095-.455.165-.7.204l.638-.086c-.221.026-.436.024-.657-.001l.638.086c-.248-.035-.491-.095-.738-.128-.67-.09-1.239-.115-1.849.242-.498.291-.973.862-1.103,1.434-.14.614-.11,1.304.242,1.849.312.484.835,1.022,1.434,1.103.538.073,1.06.21,1.607.234.826.036,1.597-.214,2.336-.551.906-.413,1.612-1.212,1.853-2.189.204-.825.115-1.564-.025-2.39-.285-1.688-.675-3.361-1.11-5.017-.318-1.214-1.729-2.072-2.952-1.676-1.25.404-2.018,1.651-1.676,2.952h0Z"/><path class="h" d="M87.46,92.824c-.875,2.844-.305,9.386,5.083,9.943,7.121-.043,7.5-7.952,5.103-11.671-1.963-3.045-7.734-4.311-10.186,1.728Z"/><path class="h" d="M144.485,92.824c.875,2.844.305,9.386-5.083,9.943-7.121-.043-7.5-7.952-5.103-11.671,1.963-3.045,7.734-4.311,10.186,1.729Z"/></g></g></g></svg>