<?xml version="1.0" encoding="UTF-8"?><svg id="b" xmlns="http://www.w3.org/2000/svg" width="325.457" height="363.81" viewBox="0 0 325.457 363.81"><defs><style>.f{fill:#bdbdbd;}.g{fill:#211715;}.h{fill:#fff;}.i{fill:#645d5c;}</style></defs><g id="c"><g id="d"><path class="i" d="M149.609,143.253c-.149-.581-.285-1.163-.406-1.746-2.141-10.333-.638-17.056,2.57-23.038.767.96,1.629,1.852,2.605,2.641,1.803,1.438,4.011,2.505,6.357,2.865,0,0,.783.12,2.073.32,1.838,6.501,4.968,13.884,10.513,20.521,5.17,6.188,10.998,10.802,17.368,13.465-.189,2.208-.489,5.548-.869,7.728-.322,1.819-.437,3.546-1.074,5.054l-16.352,3.231c-10.977,2.472-24.275.672-22.954-2.71,4.692-2.659,5.748-9.136,4.487-14.379-1.122-4.665-3.12-9.274-4.318-13.953Z"/><path class="h" d="M267.686,90.801c1.677-1.514,4.163-2.246,6.488-1.898,2.325.347,4.441,1.749,5.505,3.66.752,1.34.995,2.866,1.133,4.355.509,5.868-.648,11.848-3.308,17.195-1.295,2.605-2.984,5.099-5.331,6.997-1.803,1.438-4.011,2.505-6.357,2.865,0,0-.395.061-1.09.174-.521,1.95-1.107,3.592-1.394,4.465-1.848,5.017-12.18,22.361-25.194,28.72l.11.915c.2,2.34.49,5.64.86,7.76.11.6.19,1.18.28,1.75l.03.24c.45,2.91,1.09,5.42,5.34,6.96,0,0-5.493,25.656-30.714,25.656s-29.876-25.656-29.876-25.656c5.2-1.88,4.99-5.22,5.65-8.95.38-2.18.68-5.52.87-7.732-6.372-2.661-12.199-7.274-17.369-13.462-5.546-6.637-8.676-14.022-10.514-20.523-1.29-.198-2.072-.318-2.072-.318-2.346-.36-4.554-1.427-6.357-2.865-2.348-1.898-4.036-4.392-5.331-6.997-2.66-5.347-3.816-11.327-3.308-17.195.139-1.489.382-3.015,1.133-4.355,1.064-1.911,3.18-3.313,5.505-3.66,2.325-.347,4.811.385,6.488,1.898,0,0,.662-47.519,54.884-47.519,58.667,0,53.936,47.519,53.936,47.519Z"/><path class="i" d="M233.552,51.398c-9.311,7.878-15.143,11.937-30.475,20.164-18.706,10.037-41.856,17.398-44.729,17.677l-1.752.17c-1.322-.527-2.8-.717-4.218-.505-.153.023-.306.05-.457.082-1.128-4.355-2.326-8.978-2.326-8.978-2.579-5.848-2.037-19.932-.103-29.494,5.6-27.69,32.312-48.057,63.411-48.057,33.203,0,55.362,18.342,62.815,47.543,2.056,8.056,4.025,26.782.135,39.353-.537-.211-1.102-.363-1.679-.449-1.783-.266-3.661.102-5.195.973-7.531-4.387-13.654-9.768-19.312-16.037-6.645-7.361-12.295-16.831-15.279-22.084"/><path class="g" d="M171.756,171.981c-4.716,1.038-9.636,1.328-14.444.865-1.664-.16-3.333-.459-4.912-1.023-.192-.069-.263-.108-.034-.004-.15-.067-.301-.138-.444-.219-.131-.075-.26-.152-.389-.231-.331-.201.108.02.101.083-.012.112-.359-.563-.099-.066.201.385.014-.475.186.382-.05-.25-.187,1.1.032.456l-1.103,1.434c6.845-4.06,6.931-12.781,4.922-19.557-1.289-4.349-3.053-8.56-4.008-13.005-.83-3.866-1.206-7.853-.797-11.797.346-3.33,1.457-6.542,3.008-9.492,1.436-2.732-2.705-5.161-4.145-2.423-2.548,4.845-3.888,10.094-3.826,15.581.039,3.455.532,6.954,1.337,10.311.859,3.585,2.196,7.029,3.318,10.534,1.489,4.652,2.978,10.886-1.01,14.8-.931.914-2.108,1.267-2.412,2.698-.25,1.178.118,2.337.91,3.23,1.216,1.37,3.143,2.003,4.874,2.414,6.514,1.549,13.726,1.084,20.21-.342,3.016-.663,1.739-5.292-1.276-4.629h0Z"/><path class="g" d="M184.808,177.274c1.972-.736,3.768-1.73,5.065-3.426.985-1.287,1.525-2.82,1.815-4.404.676-3.692,1.08-7.428,1.402-11.165.111-1.293-1.183-2.4-2.4-2.4-1.391,0-2.288,1.103-2.4,2.4-.153,1.78-.313,3.561-.528,5.335-.065.54-.165,1.199-.305,2.045-.109.655-.198,1.312-.304,1.967-.096.592-.205,1.184-.365,1.762-.047.169-.097.337-.153.502-.024.071-.2.544-.064.201s-.06.12-.094.188c-.066.13-.137.258-.212.383-.076.126-.169.244-.242.372.256-.454.029-.039-.084.085-.219.24-.458.467-.714.668.406-.32-.172.095-.213.12-.13.081-.262.159-.396.234-.418.233-.828.405-1.084.501-1.214.453-2.041,1.623-1.676,2.952.321,1.166,1.732,2.132,2.952,1.676h0Z"/><path class="g" d="M245.398,172.645c-.857-.321.131.077-.316-.118-.193-.084-.382-.178-.569-.276-.339-.178-.662-.379-.976-.597.27.187.058.052-.082-.077-.12-.111-.241-.221-.354-.339-.087-.09-.163-.195-.254-.281.363.343.032.043-.061-.1-.141-.217-.233-.495-.39-.695-.168-.212.141.422,0,.009-.048-.139-.099-.276-.144-.416-.183-.572-.307-1.161-.411-1.752-.027-.152-.051-.305-.076-.458.093.552-.044-.325-.059-.425-.07-.484-.146-.969-.227-1.452-.068-.401-.135-.802-.196-1.204-.062-.406,0,.022-.033-.234-.028-.218-.055-.437-.081-.656-.21-1.771-.365-3.549-.517-5.326-.111-1.291-1.024-2.4-2.4-2.4-1.213,0-2.511,1.101-2.4,2.4.167,1.953.336,3.908.581,5.853.133,1.051.296,2.094.466,3.139.047.29.09.58.134.87-.042-.278.084.585.103.711.052.334.11.667.178.998.309,1.506.886,2.929,1.835,4.144,1.277,1.636,3.061,2.594,4.975,3.309,1.214.454,2.631-.506,2.952-1.676.369-1.345-.458-2.497-1.676-2.952h0Z"/><path class="g" d="M151.667,78.796c.151.353-.127-.379-.177-.528-.122-.37-.228-.745-.324-1.122-.203-.795-.36-1.603-.483-2.414-.267-1.763-.367-3.646-.414-5.462-.113-4.41.155-8.846.722-13.22.982-7.568,3.267-14.815,7.155-21.398,7.791-13.189,20.917-22.683,35.513-27.012,14.922-4.425,31.941-3.754,46.348,2.261,12.832,5.357,22.846,15.398,28.817,27.888,2.987,6.248,4.934,12.972,5.903,19.822,1.145,8.092,1.496,16.638.241,24.736-.315,2.032-.745,4.042-1.323,6.015-.87,2.97,3.76,4.239,4.629,1.276,2.542-8.677,2.586-18.118,1.807-27.059-.66-7.585-2.105-14.964-4.887-22.069-5.481-13.994-15.323-25.95-28.786-32.889C231.654.014,213.715-1.765,197.567,1.69c-16.247,3.477-31.16,12.794-40.846,26.361-4.636,6.494-7.96,13.999-9.544,21.824-1.735,8.57-2.522,17.918-1.048,26.584.282,1.657.733,3.215,1.393,4.759.51,1.192,2.264,1.457,3.284.861,1.233-.721,1.373-2.087.861-3.284h0Z"/><path class="g" d="M269.383,92.498c2.232-1.906,6.016-1.675,7.854.69,1.08,1.39,1.188,3.367,1.262,5.051.091,2.059,0,4.147-.348,6.18-1.227,7.153-5.001,15.872-12.972,17.241-1.278.22-1.995,1.791-1.676,2.952.372,1.352,1.67,1.896,2.952,1.676,8.197-1.408,13.077-9.114,15.348-16.502,1.205-3.919,1.727-8.116,1.459-12.209-.26-3.973-1.463-7.709-5.114-9.789-3.937-2.243-8.766-1.583-12.159,1.315-.986.842-.866,2.528,0,3.394.977.977,2.405.844,3.394,0h0Z"/><path class="g" d="M263.333,117.939c-.077,2.346-.621,4.63-1.289,6.873-.258.866-.542,1.723-.83,2.579-.078.232-.152.465-.237.694-.098.263-.295.692-.056.158-1.019,2.281-2.258,4.458-3.583,6.574-3.885,6.204-8.631,12.096-14.4,16.648-3.195,2.521-6.789,4.55-10.759,5.463-3.009.692-1.736,5.321,1.276,4.629,8.072-1.855,14.834-7.657,20.167-13.738,4.383-4.998,8.501-10.659,11.26-16.74,1.84-4.054,3.104-8.691,3.25-13.138.102-3.09-4.698-3.086-4.8,0h0Z"/><path class="g" d="M160.563,89.104c-3.012-2.573-7.171-3.436-10.886-1.911-3.856,1.583-5.757,4.899-6.249,8.91-.956,7.797,1.134,16.63,5.818,22.985,2.662,3.612,6.348,6.428,10.851,7.202,1.276.219,2.585-.34,2.952-1.676.317-1.154-.392-2.732-1.676-2.952-7.971-1.369-11.745-10.089-12.972-17.241-.336-1.962-.43-3.972-.356-5.96.063-1.7.144-3.69,1.174-5.127,1.784-2.49,5.668-2.784,7.95-.834.985.841,2.427.967,3.394,0,.862-.862.99-2.549,0-3.394h0Z"/><path class="g" d="M158.748,117.149c2.948,17.013,12.164,33.671,27.924,41.887,4.299,2.241,8.886,3.607,13.704,4.106,1.291.134,2.4-1.199,2.4-2.4,0-1.409-1.105-2.266-2.4-2.4-16.27-1.685-28.952-16.269-34.068-30.926-1.311-3.755-2.253-7.626-2.931-11.543-.221-1.278-1.79-1.996-2.952-1.676-1.351.371-1.898,1.671-1.676,2.952h0Z"/><path class="g" d="M269.381,87.325c-7.552-4.563-14.183-10.526-19.841-17.283-5.027-6.003-9.215-12.703-13.08-19.498-1.527-2.685-5.676-.269-4.145,2.423,6.598,11.596,14.319,22.622,24.587,31.275,3.161,2.664,6.517,5.09,10.055,7.227,2.651,1.601,5.066-2.548,2.423-4.145h0Z"/><path class="g" d="M158.348,91.638c3.075-.332,6.125-1.5,9.043-2.459,5.653-1.858,11.234-3.943,16.742-6.194,12.691-5.188,25.103-11.373,36.599-18.87,5.098-3.325,9.872-7.094,14.517-11.02.991-.837.863-2.532,0-3.394-.981-.981-2.401-.839-3.394,0-3.909,3.304-7.86,6.458-12.107,9.317-5.065,3.409-10.393,6.413-15.755,9.324-11.45,6.216-23.469,11.317-35.8,15.514-2.251.766-4.512,1.504-6.796,2.167-.752.218-1.507.431-2.268.617-.266.065-.534.121-.801.183-.532.123-.391.061.019.016-1.289.139-2.4,1.003-2.4,2.4,0,1.189,1.103,2.54,2.4,2.4h0Z"/><path class="h" d="M200.344,236.768c-6.799-22.174-16.884-55.197-18.971-62.03,1.899-3.315,4.299-6.584,7.224-9.272,6.777,6.87,15.424,12.763,23.694,16.513.49.222,1.037.494,1.196,1.009h3.387c.158-.515.705-.787,1.196-1.009,8.27-3.75,16.917-9.644,23.694-16.513,3.361,3.089,6.029,6.947,8.05,10.761-1.725,7.114-5.787,21.443-11.04,36.179-9.985,28.005-17.241,47.069-25.254,66.305-2.754-7.726-5.02-15.543-7.451-23.349-1.009-3.241-3.126-10.127-5.723-18.595Z"/><path class="h" d="M231.807,202.491c7.608-7.561,12.592-16.72,18.212-25.868-2.044-3.942-4.78-7.96-8.257-11.156-6.777,6.87-15.424,12.763-23.694,16.513-.49.222-1.037.494-1.196,1.009-.137.446.071.918.274,1.338.307.636,2.356,3.214,4.901,6.328,3.334,4.08,7.521,9.079,9.76,11.836Z"/><path class="h" d="M198.551,202.491c-7.608-7.561-12.592-16.72-18.212-25.868,2.044-3.942,4.78-7.96,8.257-11.156,6.777,6.87,15.424,12.763,23.694,16.513.49.222,1.037.494,1.196,1.009.137.446-.071.918-.274,1.338-.307.636-2.356,3.214-4.901,6.328-3.334,4.08-7.521,9.079-9.76,11.836Z"/><path class="g" d="M233.504,204.188c5.754-5.762,10.227-12.59,14.441-19.516,1.037-1.705,2.064-3.417,3.1-5.123.534-.878,1.375-1.851,1.375-2.926,0-1.069-.817-2.154-1.337-3.061-2.059-3.593-4.591-6.964-7.623-9.792-.945-.882-2.454-.947-3.394,0-5.802,5.845-12.546,10.733-19.861,14.513-1.612.833-3.979,1.451-5.079,2.97-1.115,1.54-.679,3.423.331,4.888,2.069,3,4.525,5.773,6.84,8.582,2.602,3.157,5.232,6.291,7.813,9.465.818,1.006,2.544.85,3.394,0,.995-.995.82-2.385,0-3.394-2.625-3.228-5.3-6.416-7.946-9.627-1.448-1.757-2.894-3.517-4.311-5.299-.483-.608-2.07-2.137-1.974-2.88l-.328,1.211c-.106.217-.38.185.037-.007.285-.131.569-.264.854-.396.561-.26,1.119-.528,1.673-.803,1.07-.531,2.126-1.087,3.17-1.666,2.278-1.265,4.495-2.64,6.645-4.113,4.338-2.972,8.43-6.319,12.136-10.051h-3.394c3.281,3.061,5.807,6.709,7.882,10.671v-2.423c-5.415,8.827-10.46,17.994-17.837,25.383-2.185,2.189,1.208,5.584,3.394,3.394Z"/><path class="g" d="M200.248,200.794c-7.378-7.388-12.422-16.555-17.837-25.383v2.423c2.075-3.962,4.601-7.61,7.882-10.671h-3.394c3.705,3.733,7.798,7.079,12.136,10.051,2.091,1.433,4.245,2.774,6.458,4.009,1.044.583,2.101,1.143,3.17,1.677.555.277,1.113.547,1.674.81.296.139.594.275.89.412.101.044.199.094.294.152.23.131.194.107-.108-.074l-.328-1.211c.092.715-1.381,2.133-1.855,2.73-1.455,1.834-2.942,3.642-4.431,5.449-2.646,3.211-5.321,6.399-7.946,9.627-.817,1.005-.983,2.411,0,3.394.844.844,2.572,1.011,3.394,0,4.684-5.76,9.613-11.345,14.085-17.274.843-1.117,1.613-2.291,1.574-3.757-.066-2.454-2.42-3.224-4.263-4.125-3.669-1.794-7.193-3.886-10.55-6.212-3.871-2.682-7.484-5.709-10.802-9.051-.936-.943-2.447-.883-3.394,0-3.033,2.829-5.563,6.199-7.623,9.792-.479.835-1.164,1.781-1.294,2.742-.158,1.171.641,2.11,1.216,3.055,1.076,1.769,2.14,3.545,3.216,5.314,4.213,6.926,8.687,13.754,14.441,19.516,2.186,2.189,5.58-1.205,3.394-3.394Z"/><path class="f" d="M123.082,205.489c4.115-6.805,9.737-9.554,16.263-12.794,8.89-4.413,27.812-12.944,36.781-17.709l4.748-2.523c.314,1.028.628,2.056.628,2.056,2.312,7.568,20.839,68.881,24.564,80.843,2.431,7.806,4.698,15.623,7.451,23.35,8.013-19.238,15.269-38.302,25.254-66.307,5.831-16.355,10.194-32.209,11.515-38.256,1.041.501,1.801.861,1.801.861,10.651,5.045,28.182,13.808,37.072,18.221,1.631.81,3.743,2.092,5.252,2.861,4.81.826,7.924,4.293,11.011,9.396,1.951,3.226,3.963,9.861,4.836,14.007,2.855,15.247,9.374,94.513,12.795,141.913h-181.9c3.002-22.425,6.163-47.283,5.478-51.914-.58-3.917-1.17-7.867-1.765-11.828,0,0-.197-1.308-.393-2.617l-2.883,6.177c-1.674,3.587-6.575,10.359-10.443,14.754-3.916,4.449-4.631,5.743-10.08,10.015-8.519,6.68-19.366,9.444-29.828,2.718-10.236-6.58-12.371-17.236-15.858-27.219-6.865-19.652-13.121-51.58-14.494-61.595,4.791-1.896,31.512-11.269,34.485-11.355,1.194,2.474,6.155,18.01,10.666,31.577.555-2.284,3.054-9.585,4.226-12.047,3.043-12.944,7.071-25.471,8.94-32.638,1.138-4.364,3.57-11.058,7.014-15.139.424-.477,2.861-2.067,3.591-2.463l-6.727,7.652Z"/><path class="f" d="M182.933,179.225c-.666-2.195-1.159-3.819-1.43-4.705,0,0-.257-.842-.515-1.684l-1.267.612c-7.985,3.854-19.13,13.454-23.536,19.505,4.477,5.189,10.645,12.514,11.744,14.065-.276.187-5.66,3.588-5.892,5.008-.158.964.438,2.259,1.952,4.604,3.204,4.962,25.944,43.982,34.127,56.052,0,0,12.205,16.38,21.345,28.647-.628-6.337-2.095-12.358-4.639-19.066-3.366-8.877-5.952-17.896-8.756-26.9-3.289-10.561-18.115-59.59-23.134-76.138Z"/><path class="f" d="M262.602,182.374c-4.03-3.383-8.447-6.53-12.255-8.506-1.243,5.823-5.652,21.922-11.576,38.538-9.985,28.005-17.241,47.069-25.252,66.306.42,1.185.854,2.369,1.302,3.551,1.778,4.688,3.03,9.041,3.837,13.4,5.664-10.467,12.439-22.981,12.439-22.981,8.182-12.07,30.923-51.09,34.127-56.052,1.514-2.344,2.109-3.639,1.952-4.604-.232-1.42-5.616-4.821-5.892-5.008,1.099-1.551,7.267-8.876,11.744-14.065-2.203-3.026-6.091-6.939-10.427-10.578Z"/><path class="h" d="M62.238,197.811c-1.966-5.075-8.14-9.975-10.661-15.894-1.354-3.179-2.502-6.027.606-8.146,2.795-1.905,5.044-.476,7.279,1.642,4.579,4.339,9.318,8.993,14,14.645,4.177,5.043,6.434,8.718,8.328,15.262.83,2.868.041,7.531,1.215,10.298.906,2.138,3.17,5.555,4.768,8.938l3.81,5.984-25,8.222-.906-2.073c-2.003-3.415-4.662-5.072-7.056-6.736-5.277-2.511-12.584-4.394-18.161-6.032-5.897-1.731-10.058-4.172-14.59-6.927-4.192-2.548-9.841-7.181-13.679-10.149-5.568-4.306-15.261-17.534-5.718-21.943,2.671-.726,7.477-1.004,9.801.494.815.11,2.263-.658,3.613-.391,4.955.979,10.06,4.237,14.632,6.384,2.366,1.111,4.171,2.591,6.768,3.182,2.713.617,17.588,3.178,21.802,4.13l-.851-.891Z"/><path class="g" d="M89.489,222.775c-.788-1.644-1.669-3.236-2.563-4.824-.641-1.14-1.434-2.355-1.823-3.568-.924-2.882-.246-6.119-.849-9.082-1.267-6.227-4.867-11.791-8.831-16.619-2.455-2.99-5.065-5.851-7.771-8.616-2.536-2.591-5.094-5.378-7.96-7.608-3.045-2.37-6.655-2.618-9.682-.023-2.612,2.24-2.526,5.583-1.388,8.561,1.36,3.56,3.341,6.551,5.702,9.522,1.963,2.471,4.401,4.961,5.599,7.932.485,1.201,1.6,2.048,2.952,1.676,1.14-.313,2.164-1.743,1.676-2.952-2.175-5.392-6.78-9.191-9.705-14.129-.66-1.114-1.21-2.281-1.661-3.494-.31-.834-.781-2.132-.56-2.779.295-.864,1.527-1.599,2.415-1.482,1.164.154,2.236,1.361,3.029,2.112,5.005,4.734,9.866,9.643,14.217,14.992,3.328,4.091,6.307,8.933,7.338,14.184.607,3.09-.11,6.355.95,9.388,1.134,3.246,3.286,6.141,4.767,9.233.56,1.169,2.231,1.477,3.284.861,1.195-.699,1.423-2.11.861-3.284h0Z"/><path class="g" d="M63.727,196.388c-5.283-1.182-10.648-2.037-15.972-3.013-2.077-.381-4.217-.664-6.256-1.223-1.943-.533-3.595-1.753-5.38-2.645-1.929-.964-3.852-1.936-5.771-2.92-2.333-1.196-4.712-2.351-7.202-3.186-1.158-.388-2.438-.806-3.667-.846-1.084-.035-2.207.475-3.205.442l1.211.328c-2.977-1.787-6.913-1.606-10.211-1.047-3.06.519-5.684,2.651-6.737,5.593-2,5.59,1.978,11.817,5.325,15.989,1.689,2.105,3.601,3.874,5.72,5.531,3.106,2.43,6.183,4.902,9.387,7.203,6.257,4.492,13.092,7.991,20.499,10.12,4.33,1.245,8.689,2.436,12.906,4.033,3.722,1.409,7.13,3.687,9.229,7.154,1.598,2.639,5.751.229,4.145-2.423-1.565-2.584-3.649-4.572-6.086-6.322-2.311-1.66-4.885-2.659-7.561-3.603-5.511-1.945-11.3-3.099-16.745-5.217-4.943-1.922-9.667-4.803-13.965-7.887-2.263-1.624-4.456-3.342-6.645-5.062-1.676-1.317-3.411-2.571-4.93-4.072-2.749-2.716-5.35-6.151-6.492-9.767-.136-.431-.254-.868-.346-1.311-.119-.574-.09-.321-.12-.893-.055-1.03-.074-1.246.307-2.197-.149.372.051-.089.104-.175.104-.17.197-.346.315-.508-.246.341.262-.279.258-.276.12-.123.247-.245.378-.355.556-.47,1.403-.776,2.33-.926,1.854-.3,4.396-.44,6.033.295.664.298,1.188.611,1.954.605.745-.007,1.45-.269,2.174-.39,1.285-.214,2.781.461,3.968.899,2.904,1.074,5.614,2.624,8.365,4.029,2.624,1.341,5.229,2.964,7.976,4.03,1.542.598,3.205.838,4.824,1.141,2.128.398,4.259.784,6.389,1.172,4.075.743,8.174,1.423,12.218,2.328,3.009.673,4.294-3.953,1.276-4.629h0Z"/><path class="g" d="M47.874,211.647c6.393,1.044,14.123.677,19.275,5.205.973.855,2.436.958,3.394,0,.872-.872.978-2.535,0-3.394-2.956-2.597-6.535-4.101-10.364-4.886-3.645-.748-7.417-.963-11.029-1.553-1.278-.209-2.583.332-2.952,1.676-.315,1.146.39,2.742,1.676,2.952h0Z"/><path class="g" d="M16.981,190.836c2.789,2.841,6.172,5.117,9.632,7.057,3.404,1.909,6.993,3.539,10.68,4.819,1.224.425,2.625-.485,2.952-1.676.363-1.321-.447-2.526-1.676-2.952-3.317-1.152-6.394-2.574-9.534-4.335-3.169-1.777-6.132-3.73-8.661-6.307-2.167-2.208-5.561,1.187-3.394,3.394h0Z"/><path class="g" d="M10.596,195.55c1.321,1.612,3.099,2.878,4.789,4.069,2.121,1.494,4.342,2.846,6.591,4.137,3.679,2.112,7.477,4.23,11.447,5.754,1.21.465,2.633-.514,2.952-1.676.372-1.354-.462-2.486-1.676-2.952-.138-.053-.273-.111-.411-.163-.422-.159.496.224.085.035-.339-.156-.682-.303-1.021-.46-.864-.4-1.719-.819-2.57-1.247-2.159-1.086-4.287-2.232-6.383-3.435-2.178-1.25-4.328-2.557-6.388-3.994-.461-.321-.917-.65-1.366-.988-.402-.302.188.158-.227-.177-.221-.178-.441-.356-.657-.54-.634-.54-1.243-1.111-1.772-1.757-.822-1.003-2.541-.853-3.394,0-.992.992-.824,2.388,0,3.394h0Z"/><path class="g" d="M183.451,164.764c-.047.133-.159.655-.001.054-.034.13-.118.261-.176.38-.123.251-.258.495-.404.734-.15.245-.312.568-.522.767.198-.187.21-.255.002-.02-.095.108-.188.217-.285.323-.421.458-.885.857-1.354,1.262-.218.188.352-.247-.018.013-.126.088-.249.18-.375.267-.283.196-.572.382-.867.56-.554.336-1.127.641-1.71.921-.18.086-.361.17-.544.252-.056.025-.568.243-.27.12s-.225.088-.281.11c-.16.063-.321.124-.482.184-1.436.534-2.912.949-4.406,1.289-1.225.279-2.063,1.757-1.676,2.952.415,1.283,1.64,1.976,2.952,1.676,6.058-1.382,12.812-4.268,15.047-10.569.42-1.185-.475-2.679-1.676-2.952-1.345-.306-2.502.408-2.952,1.676h0Z"/><path class="g" d="M141.152,363.81h181.9c3.089,0,3.094-4.8,0-4.8h-181.9c-3.089,0-3.094,4.8,0,4.8h0Z"/><path class="g" d="M128.598,195.765c-1.419.796-3.094,1.758-4.189,2.974-1.627,1.808-2.863,4.041-3.909,6.221-1.962,4.085-3.171,8.351-4.385,12.694-1.331,4.761-2.752,9.495-4.096,14.252-.82,2.904-1.619,5.814-2.38,8.734-.641,2.463-1.014,5.149-1.98,7.442-1.557,3.697-3.011,7.59-3.959,11.493-.729,3.001,3.898,4.281,4.629,1.276.817-3.36,2.061-6.676,3.311-9.894.142-.366.286-.732.436-1.094-.153.368.131-.291.184-.412.62-1.415.859-3.009,1.234-4.507.709-2.836,1.46-5.661,2.237-8.48,1.377-4.995,2.848-9.964,4.277-14.944,1.125-3.919,2.057-7.896,3.562-11.694.955-2.41,2.141-4.773,3.633-6.897.653-.929.725-.999,1.415-1.482.778-.543,1.574-1.073,2.402-1.538,2.694-1.512.277-5.66-2.423-4.145h0Z"/><path class="g" d="M174.915,172.914c-7.065,3.744-14.352,7.076-21.586,10.476-7.102,3.338-14.444,6.453-21.243,10.389-4.519,2.616-8.328,6.032-11.076,10.5-1.623,2.638,2.527,5.052,4.145,2.423,4.313-7.012,11.861-10.257,19.001-13.686,7.368-3.539,14.797-6.952,22.169-10.483,3.696-1.771,7.391-3.554,11.013-5.473,2.731-1.447.308-5.592-2.423-4.145h0Z"/><path class="g" d="M115.381,279.167c-.083-.168-.163-.337-.241-.507-.066-.143-.36-.823-.197-.44s-.146-.357-.206-.508c-.121-.301-.24-.603-.357-.906-.577-1.488-1.121-2.989-1.655-4.493-1.416-3.985-2.763-7.994-4.1-12.006-2.8-8.404-5.505-16.84-8.342-25.232-.874-2.584-1.663-5.271-2.839-7.739-.343-.72-1.293-1.224-2.072-1.189-1.563.07-3.139.603-4.628,1.036-2.529.736-5.036,1.546-7.538,2.368-5.682,1.866-11.336,3.819-16.967,5.832-2.003.716-4.011,1.425-5.99,2.205-1.333.526-1.871,1.541-1.676,2.952,1.26,9.128,3.193,18.193,5.187,27.183,2.548,11.484,5.351,22.984,9.201,34.11,1.923,5.556,3.488,11.279,6.132,16.554,2.868,5.722,7.272,10.597,12.976,13.593,6.297,3.307,13.585,3.883,20.314,1.545,5.954-2.069,11.326-5.988,15.709-10.476,4.543-4.652,8.721-9.881,12.368-15.255,2.237-3.297,4.087-6.864,6.102-10.3,1.566-2.67-2.581-5.089-4.145-2.423-1.541,2.627-2.963,5.348-4.563,7.935-3.049,4.93-6.745,9.336-10.517,13.715-7.383,8.572-18.353,16.416-30.143,12.303-5.681-1.982-10.222-6.318-13.13-11.498-2.693-4.797-4.159-10.135-5.908-15.317-3.644-10.798-6.589-21.766-9.121-32.876-2.264-9.935-4.442-19.967-5.836-30.068l-1.676,2.952c4.223-1.665,8.536-3.123,12.823-4.609,5.51-1.909,11.033-3.805,16.618-5.484,1.022-.307,2.048-.609,3.082-.874.364-.093.729-.185,1.098-.26.15-.03.315-.042.461-.086.323-.097-.765.066-.237.043l-2.072-1.189c.054.113.093.241.157.348-.326-.553-.149-.365,0,.022.174.451.344.903.509,1.357.484,1.33.943,2.67,1.399,4.01,1.295,3.807,2.549,7.629,3.805,11.449,2.823,8.586,5.598,17.192,8.599,25.718,1.054,2.993,2.058,6.078,3.468,8.928.575,1.161,2.22,1.483,3.284.861,1.184-.692,1.438-2.118.861-3.284h0Z"/><path class="g" d="M207.537,301.273c-.029-3.48-1.963-6.525-5.335-7.621-3.588-1.166-7.976.012-9.929,3.37-1.526,2.625-1.624,6.209-.041,8.829,1.963,3.247,6.194,4.54,9.769,3.488s5.511-4.496,5.536-8.066c.009-1.256-1.11-2.458-2.4-2.4-1.308.059-2.391,1.054-2.4,2.4-.001.205-.009.41-.026.615-.009.104-.035.216-.034.321-.005-.712.07-.438.017-.202-.05.223-.094.445-.156.665-.032.112-.067.223-.104.332-.075.219-.345.617.027-.026-.119.206-.207.429-.33.634-.062.103-.132.202-.197.303-.248.388.393-.441.079-.1-.169.184-.342.356-.523.529-.34.324.487-.314.083-.063-.15.093-.293.191-.449.275-.256.138-.426.059.077-.01-.128.018-.28.105-.405.144-.143.044-.288.082-.434.115l-.151.032c-.26.045-.205.041.165-.012-.091.124-.892.05-1.043.047-.18-.004-.359-.022-.539-.028-.274-.029-.231-.02.129.025-.108-.017-.216-.036-.323-.057-.305-.062-.595-.157-.892-.246-.498-.149.489.258.041.021-.123-.065-.247-.124-.368-.193-.117-.067-.226-.144-.341-.213-.413-.25.424.381.071.061-.218-.198-.42-.4-.619-.617-.313-.341.328.488.08.102-.064-.1-.133-.197-.194-.299-.09-.149-.193-.518-.322-.619.26.203.19.529.075.151-.033-.107-.071-.211-.102-.318-.068-.237-.079-.509-.161-.738.196.55.056.537.043.278-.004-.084-.012-.168-.016-.252-.01-.253-.002-.506.014-.759.009-.133.043-.282.037-.415.028.633-.049.337-.004.096.058-.308.136-.612.236-.909.042-.124.102-.246.138-.371-.181.636-.121.288-.023.099.115-.222.314-.435.407-.662-.192.467-.247.301-.05.082.087-.097.178-.191.272-.281.09-.086.22-.165.298-.261-.312.236-.366.281-.163.136.075-.051.152-.1.23-.147.12-.072.245-.132.367-.201.441-.251-.537.173-.043.013.294-.095.583-.19.886-.254l.159-.031c.263-.043.215-.039-.144.012.112-.061.397-.038.523-.043.187-.008.372-.007.559,0,.121.005.242.012.363.022.275.028.235.02-.119-.027.311-.044.795.156,1.09.252l.142.048c.242.092.187.065-.166-.08.125.108.352.168.498.253.117.068.226.145.341.216.35.219-.445-.399.022.03.093.086.183.175.269.268.428.462-.203-.339.016-.003.158.242.299.485.434.74.218.412-.198-.566-.051-.123.052.155.107.308.151.465.033.118.062.237.088.357.047.217.052.763.016-.034.013.286.049.568.051.855.01,1.255,1.096,2.458,2.4,2.4,1.291-.058,2.411-1.055,2.4-2.4Z"/><path class="g" d="M248.055,173.123c-1.104,5.188-2.585,10.307-4.074,15.395-2.312,7.898-4.845,15.732-7.608,23.484-5.106,14.325-10.315,28.615-15.814,42.795-2.622,6.762-5.315,13.497-8.08,20.202-.494,1.199.535,2.639,1.676,2.952,1.378.379,2.456-.473,2.952-1.676,5.062-12.274,9.863-24.653,14.487-37.098,5.727-15.415,11.465-30.859,16.194-46.615,1.799-5.995,3.591-12.036,4.895-18.163.641-3.013-3.985-4.301-4.629-1.276h0Z"/><path class="g" d="M250.875,177.083c7.473,3.543,14.887,7.211,22.298,10.882,3.529,1.748,7.054,3.501,10.58,5.255,1.398.695,2.8,1.383,4.194,2.085,1.984.999,3.998,2.629,6.158,3.165,7.666,1.903,10.929,10.829,12.839,17.639.599,2.134,1.072,4.275,1.406,6.464.124.813.237,1.628.351,2.443.085.608-.06-.462.022.163.029.222.059.445.088.667.065.497.128.995.19,1.493,1.456,11.631,2.528,23.313,3.603,34.984,1.45,15.754,2.783,31.518,4.063,47.286,1.262,15.538,2.47,31.081,3.61,46.628.126,1.725.252,3.449.376,5.174.093,1.293,1.036,2.4,2.4,2.4,1.227,0,2.494-1.1,2.4-2.4-1.116-15.456-2.305-30.906-3.546-46.352-1.295-16.122-2.644-32.24-4.103-48.348-1.121-12.375-2.253-24.757-3.725-37.096-.424-3.554-.807-7.143-1.489-10.659-1.506-7.769-4.564-16.66-10.829-21.899-1.565-1.309-3.298-2.332-5.256-2.931-.378-.116-.836-.148-1.192-.265-.464-.152-.934-.505-1.36-.743-1.08-.603-2.149-1.225-3.25-1.79-3.139-1.611-6.319-3.145-9.479-4.715-7.632-3.792-15.267-7.579-22.94-11.287-1.659-.802-3.32-1.599-4.985-2.388-1.171-.555-2.59-.325-3.284.861-.611,1.045-.315,2.726.861,3.284h0Z"/><path class="g" d="M179.188,175.158c2.247,7.355,4.465,14.72,6.694,22.08,3.511,11.592,7.023,23.184,10.543,34.774,2.619,8.622,5.246,17.241,7.903,25.851,1.532,4.964,3.021,9.942,4.63,14.883s3.556,9.747,5.135,14.685c2.772,8.67,3.691,17.603,3.214,26.678-.308,5.86-1.07,11.713-1.773,17.535-.954,7.909-2.01,15.808-3.195,23.686-.268,1.785-.545,3.569-.831,5.352-.205,1.278.33,2.582,1.676,2.952,1.143.314,2.745-.389,2.952-1.676,2.371-14.76,4.445-29.651,5.73-44.549.673-7.797.459-15.685-1.085-23.372-.951-4.739-2.49-9.268-4.163-13.792-1.862-5.036-3.502-10.15-5.089-15.278-3.059-9.887-6.085-19.784-9.095-29.685-3.556-11.696-7.101-23.396-10.645-35.096-2.534-8.364-5.061-16.73-7.604-25.09-.123-.405-.246-.81-.37-1.215-.9-2.946-5.535-1.69-4.629,1.276h0Z"/><path class="g" d="M178.51,171.375c-4.931,2.409-9.407,5.789-13.596,9.304-3.943,3.309-7.742,6.904-10.801,11.062-.658.894-.272,2.158.375,2.908,2.36,2.736,4.702,5.488,7.022,8.258.967,1.154,1.931,2.311,2.883,3.477.352.431.702.865,1.049,1.3.112.141.591.577.117.144.115.105.206.274.297.401l.861-3.284c-1.978,1.312-4.128,2.623-5.744,4.381-2.597,2.827-.678,5.957,1.056,8.692,1.881,2.968,3.65,6.01,5.45,9.027,6.455,10.823,12.874,21.668,19.448,32.419,2.966,4.851,5.927,9.718,9.115,14.428,1.722,2.544,5.882.145,4.145-2.423-6.128-9.054-11.649-18.543-17.268-27.916-5.281-8.81-10.456-17.686-15.81-26.451-.308-.504-.618-1.008-.934-1.507-.479-.755-.967-1.505-1.38-2.299-.189-.363-.236-.479-.321-.732-.047-.139-.057-.294-.106-.431.14.395.089-.065.031.242-.012.063-.175.738-.107.435.041-.183-.337.348.007-.013.206-.217.413-.429.632-.632.615-.568.968-.831,1.573-1.273.861-.629,1.75-1.213,2.638-1.802,1.003-.665,1.653-2.182.861-3.284-3.666-5.102-8.022-9.798-12.119-14.551l.375,2.908c1.09-1.482,2.745-3.273,4.22-4.756,1.858-1.868,3.813-3.641,5.831-5.334,3.883-3.259,8.057-6.322,12.624-8.554,1.164-.569,1.481-2.224.861-3.284-.695-1.188-2.115-1.432-3.284-.861h0Z"/><path class="g" d="M248.281,175.52c4.568,2.232,8.742,5.295,12.624,8.554,2.018,1.694,3.972,3.467,5.831,5.334,1.473,1.48,3.13,3.275,4.22,4.756l.375-2.908c-4.098,4.752-8.454,9.448-12.119,14.551-.787,1.095-.137,2.622.861,3.284,1.816,1.204,3.517,2.194,4.907,3.781.192.219-.096-.11-.099-.128.058.387-.033-.127-.047-.193-.066-.307.022-.42-.033-.208-.154.6-.521,1.237-.933,1.928-.42.706-.876,1.391-1.309,2.09-1.986,3.211-3.901,6.467-5.834,9.71-6.286,10.548-12.547,21.111-18.959,31.582-2.845,4.646-5.687,9.305-8.741,13.818-1.736,2.565,2.421,4.97,4.145,2.423,6.415-9.48,12.184-19.424,18.062-29.241,5.195-8.676,10.243-17.453,15.58-26.043,1.452-2.337,3.903-5.481,2.213-8.289-1.409-2.34-4.309-3.903-6.53-5.375l.861,3.284c.093-.13.184-.289.297-.401-.451.442-.05.064.054-.064.341-.426.682-.852,1.027-1.275.98-1.202,1.973-2.393,2.969-3.582,2.321-2.769,4.663-5.521,7.022-8.258.639-.741,1.027-2.022.375-2.908-3.059-4.158-6.858-7.753-10.801-11.062-4.188-3.515-8.665-6.895-13.596-9.304-1.164-.569-2.595-.316-3.284.861-.617,1.056-.308,2.712.861,3.284h0Z"/><path class="g" d="M291.765,197.434c-.682,8.391-1.777,16.752-2.907,25.092-1.55,11.445-3.243,22.871-4.957,34.293-1.913,12.745-3.863,25.485-5.782,38.229-.471,3.127-.94,6.254-1.405,9.382-.312,2.092-.781,4.213-.832,6.332-.083,3.443.323,6.924.659,10.345,1.32,13.449,3.198,26.848,4.992,40.24.172,1.284.98,2.4,2.4,2.4,1.163,0,2.573-1.106,2.4-2.4-1.636-12.216-3.306-24.433-4.625-36.688-.432-4.016-.874-8.05-1.008-12.09-.019-.577-.031-1.155-.02-1.733.005-.249.023-.498.03-.746.003-.094.031-.196.023-.29.028-.254.012-.142-.049.334.033-.221.065-.441.098-.662.472-3.188.948-6.376,1.426-9.563,3.651-24.338,7.497-48.649,10.858-73.029,1.349-9.787,2.698-19.596,3.499-29.446.105-1.294-1.178-2.4-2.4-2.4-1.386,0-2.295,1.103-2.4,2.4h0Z"/><path class="g" d="M128.605,198.555c.699,8.594,1.832,17.153,2.983,25.695,1.533,11.369,3.214,22.718,4.916,34.062,1.911,12.739,3.862,25.473,5.779,38.211.479,3.181.956,6.363,1.43,9.545.112.754.224,1.507.336,2.261.056.376.112.752.167,1.128.04.267.115,1.27.04.233.035.479.065.956.069,1.437.028,3.517-.358,7.053-.698,10.548-1.293,13.28-3.104,26.512-4.873,39.735-.172,1.287,1.226,2.4,2.4,2.4,1.44,0,2.227-1.109,2.4-2.4,1.61-12.032,3.223-24.069,4.506-36.141.432-4.063.864-8.141,1.027-12.226.165-4.152-.742-8.241-1.354-12.332-3.65-24.385-7.508-48.742-10.89-73.166-1.334-9.634-2.649-19.292-3.437-28.989-.105-1.292-1.028-2.4-2.4-2.4-1.217,0-2.506,1.101-2.4,2.4h0Z"/><g id="e"><path class="g" d="M203.53,134.303c3.214,1.697,6.677,2.404,10.311,2.38,3.666-.024,7.401-.732,10.342-3.023,1.023-.797.837-2.557,0-3.394-1.01-1.01-2.368-.799-3.394,0,.709-.552.089-.081-.093.035-.21.135-.427.259-.648.375-.15.079-.907.396-.314.17-.296.113-.591.227-.893.325-1.887.607-3.329.725-5.336.713-1.964-.012-3.254-.136-5.092-.686-.327-.098-.646-.215-.969-.326-.105-.036-.206-.09-.312-.122.589.174.162.073.008,0-.401-.188-.795-.386-1.187-.592-1.146-.605-2.61-.291-3.284.861-.634,1.084-.289,2.676.861,3.284h0Z"/><path class="g" d="M212.767,109.823c.457,1.741.895,3.509,1.157,5.292l-.086-.638c.031.244.045.485.02.73l.086-.638c-.017.114-.042.22-.08.328l.242-.573c-.034.077-.069.142-.116.211l.375-.486c-.054.066-.106.117-.173.17l.486-.375c-.134.086-.275.155-.419.222l.573-.242c-.231.096-.459.167-.706.206l.638-.086c-.223.026-.44.025-.663-.001l.638.086c-.25-.035-.495-.096-.745-.129-.67-.09-1.239-.115-1.849.242-.498.291-.973.862-1.103,1.434-.14.614-.11,1.304.242,1.849.312.484.835,1.022,1.434,1.103.541.073,1.067.212,1.617.236.83.036,1.605-.215,2.347-.553.91-.415,1.618-1.216,1.861-2.197.205-.829.115-1.571-.025-2.401-.288-1.705-.682-3.394-1.12-5.066-.318-1.214-1.729-2.072-2.952-1.676-1.25.404-2.018,1.651-1.676,2.952h0Z"/><path class="g" d="M184.485,94.92c-.884,2.872-.308,9.478,5.133,10.04,7.191-.043,7.573-8.03,5.153-11.785-1.982-3.075-7.809-4.353-10.285,1.745Z"/><path class="g" d="M242.067,94.921c.884,2.872.308,9.478-5.132,10.04-7.191-.043-7.573-8.03-5.153-11.785,1.982-3.075,7.809-4.353,10.285,1.746Z"/></g></g></g></svg>