<?xml version="1.0" encoding="UTF-8"?><svg id="b" xmlns="http://www.w3.org/2000/svg" width="327.607" height="361.506" viewBox="0 0 327.607 361.506"><defs><style>.g{fill:#3f88c9;}.h{fill:#211715;}.i{fill:#fff;}.j{fill:#65a0d4;}.k{fill:#645d5c;}</style></defs><g id="c"><g id="d"><path class="i" d="M241.637,89.046c1.656-1.495,4.112-2.218,6.409-1.875,2.296.343,4.387,1.728,5.438,3.615.743,1.323.982,2.831,1.119,4.301.503,5.796-.64,11.703-3.267,16.985-1.279,2.573-2.947,5.037-5.266,6.912-1.781,1.421-3.961,2.474-6.279,2.83,0,0-.391.06-1.075.166-.515,1.928-1.094,3.553-1.378,4.416-1.829,4.966-12.072,22.157-24.961,28.411-.032,4.338-.117,9.305,1.396,13.059,2.587,6.384,16.522,14.429,17.482,14.846,0,0-7.57,29.115-43.57,29.115-45.778,0-43.911-30.238-43.911-30.238.96-.417,12.717-7.34,15.304-13.724,1.72-4.261,1.37-10.094,1.396-14.793-4.326-2.653-8.355-6.258-12.045-10.674-5.477-6.556-8.569-13.849-10.384-20.27-1.274-.197-2.047-.315-2.047-.315-2.317-.356-4.498-1.409-6.279-2.83-2.319-1.875-3.987-4.338-5.266-6.912-2.627-5.282-3.77-11.188-3.267-16.985.137-1.471.377-2.978,1.119-4.301,1.051-1.887,3.141-3.272,5.438-3.615s4.752.38,6.409,1.875c0,0,5.09-47.736,53.979-47.736s53.509,47.736,53.509,47.736Z"/><path class="k" d="M249.844,52.864c-.494-2.093-1.087-4.034-1.766-5.769-2.657-6.787-6.726-14.621-14.97-19.146l-9.672-7.273c-9.649-15.976-27.44-19.1-42.599-18.039-18.004,1.259-30.836,6.094-42.536,19.837-17.049,20.026-17.527,46.517-11.085,64.796.155-.047.314-.076.475-.1,2.279-.341,4.716.377,6.36,1.861l8.443-9.186c3.53-5.019,13.54-17.463,21.148-18.983,5.44-1.087,11.238.091,16.881-.136,10.229-.411,18.69-5.257,27.763-8.791,1.208-.471,2.427-.918,3.662-1.328.678-.225,1.415-.445,2.152-.353.943.118,1.607.705,2.171,1.255,10.535,10.281,20.428,25.057,22.213,40.469,1.629-1.483,3.251-2.947,3.251-2.947,1.644-1.484,4.082-2.201,6.36-1.861.239.036.476.083.707.149,3.517-10.897,3.412-24.416,1.04-34.454Z"/><path class="h" d="M209.974,154.983c-.027,3.687-.065,7.431.737,11.052.61,2.757,1.879,4.99,3.73,7.091,3.311,3.759,7.604,6.749,11.809,9.422,1.221.776,2.469,1.636,3.792,2.236,1.18.535,2.582.338,3.284-.861.602-1.03.325-2.746-.861-3.284-1.433-.65-2.782-1.587-4.102-2.434-2.44-1.566-4.826-3.235-7.038-5.112-2.094-1.777-4.248-3.637-5.306-6.043-1.581-3.594-1.273-8.174-1.244-12.069.023-3.089-4.777-3.093-4.8,0h0Z"/><path class="h" d="M158.075,154.462c.02,3.753.22,7.666-.818,11.314-.733,2.575-2.448,4.486-4.351,6.294-1.967,1.869-4.13,3.513-6.38,5.026-1.264.85-2.572,1.788-3.965,2.422-1.18.537-1.468,2.246-.861,3.284.709,1.213,2.099,1.4,3.284.861,1.554-.707,3.009-1.766,4.411-2.725,2.593-1.775,5.125-3.709,7.365-5.918,2.295-2.264,4.233-4.832,5.125-7.967,1.156-4.06,1.012-8.411.99-12.59-.017-3.088-4.817-3.094-4.8,0h0Z"/><path class="h" d="M129.224,85.742c-6.669-20.057-3.726-43.624,9.713-60.291,6.515-8.08,14.761-14.36,24.739-17.446,5.063-1.566,10.312-2.408,15.585-2.847,4.852-.404,9.747-.456,14.586.15,5.291.663,10.569,2.162,15.246,4.753,5.085,2.817,9.243,6.871,12.27,11.827,1.608,2.632,5.761.223,4.145-2.423-5.887-9.636-15.474-15.798-26.437-18.113-10.582-2.234-22.013-1.538-32.499.9-10.804,2.511-20.329,8.082-27.89,16.191-8.384,8.991-14.079,20.187-16.384,32.266-2.292,12.013-1.564,24.69,2.299,36.309.97,2.917,5.607,1.667,4.629-1.276h0Z"/><path class="h" d="M144.567,81.056c3.53-5.001,7.81-9.998,12.693-14.015,2.427-1.997,4.904-3.587,7.931-4.026,4.836-.702,9.771.233,14.627.131,9.338-.195,17.681-4.147,26.124-7.687,2.248-.942,4.521-1.884,6.851-2.604.881-.272,1.118-.277,1.78.351.768.727,1.504,1.494,2.234,2.259,3.009,3.153,5.796,6.514,8.286,10.092,5.571,8.005,10.007,17.214,11.055,27.011.138,1.289,1.004,2.4,2.4,2.4,1.191,0,2.539-1.103,2.4-2.4-1.021-9.541-4.701-18.548-9.829-26.608-2.583-4.06-5.525-7.906-8.72-11.503-1.455-1.638-2.955-3.265-4.556-4.764-2.092-1.958-4.349-2.143-6.996-1.246-9.151,3.103-17.717,8.4-27.437,9.643-5.208.666-10.412-.249-15.629-.077-4.082.135-7.604,1.104-10.982,3.409-6.507,4.442-11.863,10.815-16.378,17.211-.748,1.06-.19,2.669.861,3.284,1.201.702,2.534.201,3.284-.861h0Z"/><path class="h" d="M231.896,30.022c6.633,3.706,10.789,10.064,13.572,16.969,2.972,7.375,3.87,15.501,3.648,23.403-.139,4.957-.796,9.87-2.132,14.65-.833,2.98,3.797,4.252,4.629,1.276,2.54-9.09,2.898-18.799,1.63-28.123-1.071-7.872-3.67-15.692-8.177-22.293-2.806-4.111-6.389-7.591-10.748-10.027-2.7-1.508-5.123,2.636-2.423,4.145h0Z"/><path class="i" d="M111.398,359.144c.05-1.35.09-2.54.14-3.53-.298-17.548-1.023-41.31-2.085-65.583-.325.425-.505.66-.505.66l-1.664,2.175c-4.538,5.729-14.012,16.924-20.062,22.218-6.032,5.276-15.468,8.509-23.409,7.242-12.366-2.004-17.774-13.766-22.823-25.243-7.261-16.508-12.423-34.263-17.585-50.752,10.343-2.25,26.813-9.795,37.156-15.241,4.086,10.048,7.689,19.002,11.81,28.653,7.421-19.228,9.329-29.744,16.609-48.752,1.351-3.528,2.365-6.704,4.942-9.467,2.42-2.594,5.622-4.213,8.855-5.674,9.935-4.49,33.736-13.602,45.779-18.998,2.081-4.825,5.263-10.193,9.651-14.227,6.637,6.728,15.105,12.499,23.204,16.172.48.218,1.016.484,1.171.988.134.437-.069.899-.268,1.31-.132.273-.59.909-1.272,1.798,3.726-.004,6.636-.009,10.495-.013-.678-.881-1.133-1.514-1.264-1.785-.199-.412-.402-.873-.268-1.31.155-.504.69-.77,1.171-.988,8.099-3.673,16.567-9.444,23.204-16.172,4.108,3.776,7.159,8.723,9.239,13.298,10.562,4.228,37.497,14.587,47.647,19.49,3.26,1.575,6.833,2.989,9.303,5.636,2.63,2.819,4.156,6.609,5.535,10.209,7.335,19.151,10.415,37.958,14.415,58.847h-32.236c-1.237,30.618-2.382,64.383-2.855,87.659-.01.47-.01.93-.02,1.38H111.398Z"/><path class="j" d="M190.097,357.339c4.743-5.335,10.841-12.467,14.765-18.184,1.352-1.97,2.507-3.032,2.635-4.507.143-1.644-.108-3.201-.336-5.757-2.813-31.609-6.983-81.021-12.356-127.138.066-1.873.657-3.712,1.248-5.502.773-2.375,2.391-7.826,1.539-5.888-.864-1.047-1.719-2.085-2.523-3.069-1.406-1.72-2.657-3.274-3.535-4.412-3.859.004-6.77.009-10.498.013-.877,1.138-2.124,2.686-3.525,4.4-.562.687-1.148,1.401-1.745,2.126.456,2.447,1.335,5.051,1.91,7.509.104.487.226.957.348,1.444.261,1.044.522,2.123.522,3.202-3.903,42.465-8.917,94.952-12.424,131.273-.134,1.383-.246,2.823.321,4.117.495,1.131,1.373,2.197,2.128,3.249,4.448,6.198,9.379,11.954,14.602,17.284.754.769,2.137,1.615,3.267,1.699,1.276.095,2.765-.859,3.58-1.775.025-.028.05-.056.075-.085Z"/><path class="h" d="M179.287,203.827c5.012-.002,10.024-.111,15.036-.113,1.255,0,2.458-1.104,2.4-2.4s-1.055-2.401-2.4-2.4c-5.012.002-10.024.111-15.036.113-1.255,0-2.458,1.104-2.4,2.4s1.055,2.401,2.4,2.4h0Z"/><path class="h" d="M173.493,190.277c.636,3.091,1.601,6.112,2.329,9.183.658,2.774-.014,5.807-.274,8.618-.543,5.884-1.09,11.768-1.639,17.652-1.138,12.198-2.286,24.394-3.441,36.591-2.149,22.701-4.321,45.401-6.511,68.098-.283,2.937-.74,5.809.795,8.503,1.578,2.77,3.794,5.33,5.761,7.83,2.002,2.545,4.09,5.021,6.254,7.429,1.023,1.138,2.064,2.262,3.119,3.37,1.089,1.143,2.16,2.366,3.568,3.127,2.918,1.577,6.025.815,8.263-1.558,1.962-2.08,3.794-4.308,5.64-6.49,3.821-4.517,7.318-9.229,10.831-13.981.685-.927,1.345-1.927,1.582-3.075.258-1.247.176-2.555.066-3.813-.216-2.476-.462-4.951-.681-7.427-.441-4.98-.878-9.96-1.318-14.94-1.008-11.412-2.028-22.823-3.086-34.23-1.181-12.734-2.408-25.465-3.711-38.187-.662-6.468-1.344-12.933-2.051-19.396-.357-3.266-.721-6.532-1.092-9.797-.185-1.625-.371-3.25-.559-4.875-.194-1.673.102-3.062.593-4.67.7-2.294,1.481-4.562,2.075-6.888.765-2.994-3.863-4.272-4.629-1.276-.594,2.326-1.376,4.594-2.075,6.888-.461,1.512-.928,3.195-.899,4.789.028,1.528.361,3.119.535,4.637.729,6.378,1.43,12.76,2.108,19.144,1.341,12.612,2.596,25.233,3.799,37.859,2.058,21.611,3.935,43.238,5.857,64.861.114,1.286.263,2.57.363,3.857.07.898.204,2.073-.083,2.712-.475,1.057-1.401,1.991-2.062,2.93-.787,1.118-1.574,2.235-2.393,3.33-3.422,4.571-7.152,8.915-10.925,13.197-.698.792-1.509,2.115-2.586,2.428-.867.252-1.703-.464-2.307-1.069-2.217-2.218-4.326-4.557-6.38-6.926-2.042-2.357-4.018-4.774-5.892-7.266-.87-1.157-1.724-2.328-2.573-3.502-.929-1.285-1.501-2.239-1.441-3.842.188-4.983.941-10.005,1.418-14.968.515-5.349,1.028-10.699,1.541-16.048,1.107-11.552,2.209-23.105,3.305-34.659,1.132-11.936,2.258-23.872,3.376-35.809.546-5.828,1.089-11.657,1.63-17.486.256-2.762.512-5.523.766-8.285.125-1.355.25-2.71.374-4.065.161-1.746-.077-3.349-.497-5.048-.72-2.912-1.613-5.796-2.218-8.734-.622-3.024-5.25-1.744-4.629,1.276h0Z"/><path class="h" d="M191.551,180.48c-3.492.004-6.983.009-10.475.013-1.255.001-2.458,1.103-2.4,2.4s1.055,2.401,2.4,2.4c3.492-.004,6.983-.009,10.475-.013,1.255-.001,2.458-1.103,2.4-2.4s-1.055-2.401-2.4-2.4h0Z"/><path class="h" d="M206.326,200.581c5.69-5.7,10.102-12.461,14.266-19.313,1.006-1.655,2.002-3.316,3.008-4.971.626-1.029,1.536-2.093,1.18-3.385-.259-.941-.952-1.914-1.44-2.747-1.981-3.385-4.392-6.559-7.264-9.238-.945-.882-2.453-.947-3.394,0-5.703,5.744-12.333,10.545-19.527,14.25-1.566.807-3.832,1.402-4.9,2.877-1.086,1.5-.697,3.354.288,4.795,2.041,2.986,4.491,5.735,6.789,8.522,2.532,3.071,5.09,6.121,7.601,9.209.818,1.006,2.544.85,3.394,0,.995-.995.82-2.385,0-3.394-2.556-3.142-5.159-6.245-7.735-9.371-1.464-1.777-2.926-3.555-4.358-5.358-.46-.58-1.917-2.003-1.83-2.674l-.328,1.211c-.111.227-.412.193.018.011.288-.122.569-.264.853-.396.503-.234,1.004-.474,1.501-.719,1.08-.533,2.147-1.093,3.2-1.677,2.236-1.24,4.412-2.59,6.522-4.035,4.256-2.915,8.271-6.197,11.906-9.859h-3.394c3.211,2.995,5.681,6.563,7.711,10.44v-2.423c-5.301,8.642-10.239,17.615-17.461,24.848-2.185,2.189,1.208,5.584,3.394,3.394Z"/><path class="h" d="M169.652,197.187c-7.221-7.234-12.16-16.206-17.461-24.848v2.423c2.03-3.877,4.501-7.445,7.711-10.44h-3.394c3.635,3.661,7.65,6.944,11.906,9.859,2.05,1.404,4.163,2.718,6.334,3.93,1.053.588,2.12,1.152,3.2,1.689.498.247.998.489,1.502.725.297.139.595.278.894.414.099.043.195.092.288.148.232.133.191.103-.123-.09l-.328-1.211c.087.671-1.37,2.094-1.83,2.674-1.431,1.803-2.894,3.581-4.358,5.358-2.576,3.126-5.179,6.229-7.735,9.371-.817,1.005-.983,2.411,0,3.394.844.844,2.572,1.011,3.394,0,4.598-5.654,9.44-11.133,13.824-16.957.822-1.092,1.564-2.245,1.526-3.674-.063-2.377-2.273-3.146-4.068-4.019-3.641-1.77-7.136-3.842-10.464-6.148-3.787-2.624-7.322-5.586-10.568-8.856-.936-.943-2.447-.883-3.394,0-2.872,2.679-5.281,5.854-7.264,9.238-.488.833-1.182,1.811-1.44,2.747-.336,1.22.467,2.213,1.063,3.193,1.046,1.718,2.08,3.444,3.124,5.163,4.164,6.852,8.575,13.613,14.266,19.313,2.185,2.189,5.58-1.204,3.394-3.394Z"/><path class="h" d="M100.788,200.194c2.419,18.958,3.538,38.103,4.629,57.175,1.304,22.795,2.265,45.611,2.979,68.432.178,5.699.339,11.398.477,17.097.131,5.417.324,10.831.125,16.246-.114,3.089,4.687,3.085,4.8,0,.36-9.792-.191-19.657-.483-29.45-.333-11.161-.734-22.319-1.198-33.475-.931-22.394-2.058-44.789-3.757-67.14-.733-9.643-1.548-19.291-2.772-28.885-.164-1.285-.986-2.4-2.4-2.4-1.169,0-2.565,1.105-2.4,2.4h0Z"/><path class="h" d="M267.808,359.144c.18-11.032.519-22.063.861-33.091.389-12.514.826-25.027,1.296-37.539.463-12.312.959-24.622,1.495-36.931.453-10.393.93-20.786,1.474-31.175.345-6.581.671-13.17,1.214-19.739.038-.456.077-.911.12-1.366.12-1.292-1.189-2.4-2.4-2.4-1.398,0-2.279,1.104-2.4,2.4-.556,5.97-.842,11.97-1.166,17.956-.542,10.02-1.01,20.043-1.455,30.068-.54,12.165-1.038,24.332-1.504,36.5-.483,12.592-.931,25.185-1.334,37.78-.356,11.131-.681,22.264-.923,33.399-.03,1.379-.056,2.759-.078,4.138-.05,3.09,4.749,3.091,4.8,0h0Z"/><path class="i" d="M41.861,181.884c-2.24-8.864-8.533-30.982-10.848-33.937-1.661-2.12-3.629-3.754-7.278-2.197-3.128,1.335-2.621,4.946-2.03,7.931.651,3.287,4.527,18.796,6.79,26.854-1.751-1.956-4.69-2.661-7.031-1.593-2.481,1.132-3.439,3.248-3.16,4.777,0,0,.218,1.198.536,2.92-1.621-1.039-4.027-.921-5.807.032-2.143,1.147-4.303,4.219-3.247,6.436,0,0,.708,1.486,1.416,2.971l-.442-.363c-2.722-2.239-7.45-.86-8.218,2.125-.59,2.291.406,4.994,1.681,7.089.151.249.314.516.485.795.159.49.249.767.249.767,1.729,5.354,5.095,13.534,10.138,19.364,2.34,2.703,5.043,5.385,7.166,8.284,2.123,2.899,2.651,6.12,3.686,9.589l.461,1.534c5.484-2.027,20.919-7.794,29.132-11.706l-.292-.821c-.808-3.728-1.698-8.574-1.17-11.733-.031-.621,2.744-8.906,3.562-10.449,1.191-2.226,1.719-6.679,1.491-8.74-.373-3.397-1.253-8.253-3.78-11.795-.507-.704-1.129-1.274-1.843-1.74-.083-.062-.176-.114-.259-.155-3.009-1.844-6.966-1.853-10.376-1.707-.173-.884-.285-1.45-.285-1.45-.12-.611-.373-1.681-.727-3.082Z"/><path class="h" d="M44.902,184.328c-.817-4.107-2.046-8.161-3.176-12.189-1.622-5.779-3.307-11.55-5.24-17.234-1.404-4.13-2.792-9.517-7.156-11.508-3.894-1.777-9.282.25-10.245,4.621-.637,2.888.192,5.929.849,8.75,1.811,7.778,3.797,15.526,5.912,23.227.817,2.975,5.449,1.712,4.629-1.276-1.831-6.668-3.534-13.374-5.165-20.094-.525-2.163-1.089-4.33-1.467-6.525-.203-1.175-.394-2.736.131-3.575.53-.847,2.335-1.21,3.217-.854.516.209.909.59,1.332,1.039.145.154.644.752.532.6-.164-.224.086.129.119.188.305.54.573,1.088.828,1.653.265.587-.073-.195.072.169.076.191.154.38.23.571.19.481.373.964.552,1.449.404,1.093.786,2.195,1.158,3.299,1.778,5.281,3.351,10.632,4.865,15.994,1.21,4.285,2.527,8.6,3.397,12.972.253,1.272,1.767,2.002,2.952,1.676,1.326-.364,1.93-1.677,1.676-2.952h0Z"/><path class="h" d="M2.641,207.127c2.088,6.416,4.903,12.815,8.991,18.22,2.411,3.188,5.322,5.943,7.825,9.055,2.393,2.975,3.122,6.379,4.175,9.963.869,2.957,5.503,1.699,4.629-1.276-1.076-3.661-1.866-7.406-4.197-10.524-2.426-3.246-5.363-6.039-7.915-9.176-4.125-5.07-6.869-11.364-8.878-17.538-.952-2.925-5.588-1.673-4.629,1.276h0Z"/><path class="h" d="M45.497,204.82c-.26-1.81-.848-3.542-1.27-5.316-.399-1.676-1.296-3.087-2.723-4.071-1.416-.977-3.158-1.199-4.82-1.425-.555-.075-1.102-.16-1.646-.292-.068-.016-.152-.03-.176-.05.322.272-.277-.471-.36-.658-.232-.523-.289-.993-.171-1.545.073-.345.221-.661.382-.971.107-.207.247-.401.351-.609.245-.489.095-.067.003-.014.796-.457,2.562-.656,3.718-.768,3.398-.33,7.234-.636,10.357.043,1.43.311,2.896.77,3.924,1.87.988,1.057,1.644,2.544,2.129,3.895.935,2.606,1.644,5.573,1.583,8.363-.1,4.563-2.3,8.463-3.729,12.741-.353,1.058-.702,2.119-1.01,3.191-.089.311-.182.623-.246.94-.054.269-.078.544-.114.816.089-.668-.082.626-.103.868-.342,3.829.557,7.823,1.358,11.546.649,3.018,5.278,1.741,4.629-1.276-.728-3.382-1.538-6.969-1.171-10.449.037-.353.316-.884.055-.437-.209.358-.025.147.037-.056.114-.379.209-.764.323-1.143.341-1.135.713-2.261,1.094-3.384.388-1.142.786-2.28,1.211-3.409.16-.424.321-.848.497-1.266-.16.38-.087.189.03-.04.11-.218.219-.436.32-.658,1.265-2.795,1.839-6.268,1.585-9.327-.295-3.546-1.092-7.104-2.555-10.353-1.653-3.672-4.373-6.104-8.336-7.009-3.872-.884-7.944-.647-11.866-.266-1.819.177-3.689.374-5.386,1.092-1.808.765-2.755,2.242-3.442,4.033-.845,2.205-.519,4.622.744,6.604,1.03,1.617,2.51,2.295,4.355,2.56,1.259.181,3.519.097,4.261,1.321.45.744.533,1.897.764,2.732.316,1.142.619,2.279.788,3.454.184,1.284,1.816,1.989,2.952,1.676,1.379-.379,1.861-1.664,1.676-2.952h0Z"/><path class="h" d="M15.484,206.721c.113.399.038-.431.027.136-.011.581.111-.211-.021.198-.036.112-.31.84-.096.379-.119.255-.253.503-.403.742-.075.121-.157.236-.237.354.021-.032.227-.275.052-.067-.155.185-.317.364-.49.531-.096.093-.196.179-.295.267.075-.067.389-.234.031-.034-.077.043-.155.092-.229.139-.294.188-.221.06.041-.001-.132.031-.715.182-.502.143.302-.055-.156.011-.228.016-.113.006-.226.011-.339.012-.102,0-.952-.054-.521.001-.311-.04-.623-.113-.925-.196-.161-.045-.7-.23-.598-.187.121.051-.41-.213-.531-.285-.126-.076-.251-.157-.37-.243.089.064.306.283-.006-.022-.213-.208-.43-.41-.631-.63-.189-.205-.368-.419-.544-.635-.257-.315.168.23-.08-.102-.075-.101-.15-.202-.223-.305-.391-.543-.76-1.103-1.118-1.668-.648-1.022-1.307-2.052-1.81-3.155-.007-.015-.167-.416-.068-.16-.048-.124-.093-.248-.137-.373-.102-.29-.193-.584-.271-.882-.044-.169-.076-.339-.118-.508-.011-.044-.078-.468-.034-.124-.043-.335-.026-.669-.04-1.005-.002-.057.035-.478-.015-.099.016-.121.044-.242.072-.36s.092-.249.103-.368c.022-.232-.047.128-.079.175.085-.127.489-.692.09-.239.156-.177.321-.338.487-.505.116-.116.324-.168-.063.043.105-.057.202-.136.305-.198.105-.063.217-.115.321-.178.37-.225-.234.036.024-.02.243-.053.479-.162.723-.22.123-.029.252-.043.374-.076.306-.084-.547.013.028.008.257-.002.512,0,.768.003.154.002.398.107-.066-.016.123.033.252.049.376.08s.245.076.37.107c.409.102-.139-.135.052.014.126.098.823.523.42.206,1.018.801,2.401.993,3.394,0,.832-.832,1.024-2.588,0-3.394-2.616-2.058-6.107-2.382-9.048-.749-3.194,1.773-3.94,5.353-3.073,8.7.446,1.722,1.285,3.309,2.209,4.817.9,1.468,1.847,2.914,2.964,4.228,2.235,2.627,5.846,3.884,9.235,3.092,3.435-.802,6.351-5.193,5.37-8.659-.353-1.247-1.696-2.021-2.952-1.676-1.247.343-2.03,1.701-1.676,2.952h0Z"/><path class="h" d="M21.381,185.679c-2.999-3.297-8.34-2.524-11.377.255-1.582,1.448-2.881,3.619-2.894,5.817-.013,2.13,1.356,4.145,2.4,5.921,1.723,2.932,3.783,5.75,5.746,8.532.863,1.223,1.748,2.533,2.899,3.507,1.548,1.31,3.797,1.896,5.802,1.81,5.275-.226,8.167-5.391,6.84-10.235-.815-2.976-5.447-1.712-4.629,1.276.344,1.257.259,2.317-.46,3.258-.088.115-.447.454-.636.571-.434.268-.833.338-1.426.335-.584-.003-1.097-.096-1.665-.289-.175-.06-.379-.224-.616-.283-.042-.01-.298-.192.002.019.32.225-.109-.109-.144-.144-.83-.848-1.149-1.293-1.822-2.248-1.371-1.944-2.714-3.917-4.063-5.876-.971-1.411-1.853-2.886-2.66-4.396-.283-.53-.596-1.091-.766-1.568.059.166-.005-.22.002-.264.048-.306.166-.592.294-.842.601-1.181,1.664-2.078,2.826-2.388,1.191-.317,2.21-.193,2.953.624,2.083,2.29,5.47-1.112,3.394-3.394h0Z"/><path class="h" d="M34.469,197.037c.065,1.288-.202,2.409-1.096,3.092-.606.463-1.384.83-2.212.432-1.134-.545-1.901-1.803-2.533-2.839-1.074-1.764-2.18-3.506-3.295-5.244-1.819-2.835-3.901-5.773-4.658-9.107-.002-.011-.106-.485-.037-.197.071.294.11-.304.009-.065-.097.231.176-.595.075-.344.202-.498.537-.88.983-1.21,1.113-.823,2.532-.92,3.774-.332,1.355.641,2.312,2.141,3.195,3.3,1.022,1.341,2.017,2.714,2.91,4.145,1.632,2.615,5.786.208,4.145-2.423-1.094-1.753-2.338-3.416-3.604-5.048-1.29-1.663-2.581-3.359-4.54-4.27-4.338-2.017-10.327-.127-11.551,4.86-.515,2.098.319,4.236,1.155,6.133.97,2.202,2.257,4.248,3.547,6.272,1.352,2.122,2.668,4.267,4.017,6.39,1.22,1.918,2.799,3.761,4.983,4.573,2.314.861,4.94.073,6.792-1.437,1.992-1.623,2.87-4.159,2.742-6.68-.156-3.074-4.957-3.092-4.8,0h0Z"/><path class="h" d="M149.201,173.937c-12.932,5.99-26.381,10.91-39.556,16.38-6.998,2.906-15.241,5.534-19.519,12.225-1.203,1.882-2.017,3.996-2.805,6.075-.895,2.359-1.792,4.717-2.65,7.089-1.577,4.362-3.044,8.763-4.449,13.184-3.142,9.886-6.177,19.786-9.882,29.482-.463,1.211.512,2.632,1.676,2.952,1.352.371,2.488-.461,2.952-1.676,3.27-8.557,6.05-17.268,8.787-26.006,2.706-8.641,5.399-17.429,8.987-25.752.846-1.963,1.927-3.783,3.472-5.274,1.632-1.574,3.633-2.7,5.653-3.698,2.627-1.297,5.471-2.477,7.974-3.522,6.825-2.851,13.699-5.587,20.554-8.365,7.113-2.882,14.263-5.723,21.229-8.949,1.176-.545,1.471-2.241.861-3.284-.706-1.207-2.103-1.408-3.284-.861h0Z"/><path class="h" d="M80.861,273.141c-6.356-14.079-12.169-28.383-17.986-42.69-.595-1.464-2.029-2.221-3.526-1.434-6.009,3.158-12.147,6.083-18.394,8.74-5.879,2.501-11.936,4.876-18.189,6.259-1.236.273-2.049,1.762-1.676,2.952,3.579,11.438,7.007,22.93,11.051,34.215,2.07,5.776,4.309,11.491,6.776,17.11,1.861,4.241,3.751,8.498,6.157,12.465,2.337,3.853,5.183,7.388,8.852,10.044,3.836,2.777,8.543,4.158,13.258,4.198,5.27.044,10.534-1.421,15.209-3.802,4.123-2.1,7.506-5.152,10.718-8.433,6.406-6.542,12.347-13.593,17.909-20.862.788-1.03.16-2.687-.861-3.284-1.236-.723-2.493-.172-3.284.861l-.905,1.183c-.191.25-.382.5-.574.75-.056.073-.111.147-.168.22.35-.447.072-.102-.122.141-1.149,1.439-2.318,2.862-3.497,4.276-2.928,3.509-5.926,6.964-9.033,10.316-2.758,2.975-5.592,6.165-8.938,8.497-3.881,2.705-8.473,4.572-13.181,5.156-4.25.527-8.587-.041-12.327-2.204-3.416-1.976-6.048-5.013-8.171-8.296-2.409-3.723-4.285-7.764-6.084-11.808-2.249-5.057-4.317-10.185-6.226-15.38-4.431-12.061-8.095-24.38-11.931-36.638l-1.676,2.952c6.534-1.444,12.824-3.979,18.967-6.586,6.372-2.704,12.635-5.677,18.763-8.897l-3.526-1.434c5.973,14.692,11.943,29.38,18.47,43.837.533,1.181,2.249,1.466,3.284.861,1.215-.711,1.396-2.098.861-3.284h0Z"/><path class="h" d="M221.682,177.719c13.106,5.294,26.416,10.304,39.389,15.777,2.686,1.133,5.494,2.341,8.182,3.607,3.961,1.866,8.357,3.496,10.907,7.263,2.901,4.286,4.474,9.565,6.1,14.43,1.711,5.118,3.185,10.313,4.49,15.549,2.997,12.021,5.127,24.235,7.454,36.397.244,1.274,1.774,2,2.952,1.676,1.333-.366,1.921-1.675,1.676-2.952-2.131-11.137-4.099-22.314-6.714-33.351-1.276-5.385-2.712-10.734-4.387-16.009-1.636-5.148-3.353-10.421-5.761-15.269-1.149-2.314-2.622-4.597-4.568-6.324s-4.209-2.938-6.537-4.044c-2.91-1.382-5.827-2.738-8.785-4.014-7.342-3.168-14.77-6.139-22.201-9.09-6.97-2.768-13.968-5.466-20.922-8.275-1.202-.486-2.637.529-2.952,1.676-.377,1.371.469,2.465,1.676,2.952h0Z"/><path class="h" d="M243.334,90.743c2.292-1.958,6.173-1.594,7.892.945.91,1.343.996,3.173,1.063,4.739.087,2.015,0,4.057-.341,6.047-1.208,7.063-4.929,15.675-12.796,17.026-1.278.22-1.995,1.791-1.676,2.952.372,1.352,1.67,1.896,2.952,1.676,8.151-1.4,12.99-9.099,15.22-16.449,1.162-3.829,1.663-7.928,1.404-11.922-.256-3.951-1.451-7.667-5.094-9.724-3.9-2.202-8.663-1.55-12.018,1.316-.986.842-.866,2.528,0,3.394.977.977,2.405.844,3.394,0h0Z"/><path class="h" d="M237.308,115.851c-.076,2.315-.613,4.568-1.272,6.781-.243.817-.51,1.627-.781,2.435-.09.267-.175.536-.273.8-.067.181-.364.843-.057.159-1.01,2.252-2.23,4.402-3.54,6.491-3.835,6.12-8.515,11.924-14.203,16.42-3.153,2.492-6.703,4.495-10.625,5.397-3.009.692-1.736,5.321,1.276,4.629,7.97-1.832,14.65-7.557,19.919-13.561,4.348-4.954,8.441-10.574,11.166-16.611,1.804-3.997,3.046-8.559,3.191-12.94.102-3.09-4.698-3.086-4.8,0h0Z"/><path class="h" d="M135.847,87.349c-2.908-2.483-6.969-3.405-10.592-1.977-3.924,1.548-5.886,4.849-6.384,8.911-.943,7.695,1.114,16.451,5.752,22.718,2.643,3.571,6.272,6.361,10.735,7.128,1.276.219,2.585-.34,2.952-1.676.317-1.154-.392-2.732-1.676-2.952-7.867-1.351-11.589-9.964-12.796-17.026-.328-1.917-.418-3.881-.349-5.823.059-1.646.132-3.542,1.071-4.963,1.692-2.559,5.619-2.886,7.892-.945.985.841,2.427.967,3.394,0,.862-.862.99-2.549,0-3.394h0Z"/><path class="h" d="M134.004,115.079c2.915,16.823,12.033,33.286,27.619,41.405,4.242,2.21,8.774,3.554,13.527,4.047,1.291.134,2.4-1.199,2.4-2.4,0-1.409-1.105-2.266-2.4-2.4-16.066-1.665-28.585-16.075-33.631-30.55-1.291-3.702-2.218-7.517-2.887-11.378-.221-1.278-1.79-1.996-2.952-1.676-1.351.371-1.898,1.671-1.676,2.952h0Z"/><g id="e"><path class="g" d="M294.82,305.386c5.32-4.738,25.891-22.903,30.403-27.416-3.703-3.83-10.778-7.555-19.274-8.346-7.287-.679-14.703-.618-21.826,1.161-7.218,1.803-16.566,6.26-21.574,12.004-6.128-5.846-15.2-8.428-23.418-8.699-8.283-.273-16.562,1.265-24.322,4.366-6.28,2.509-11.358,6.111-14.841,12.792,4.815,4.21,27.455,19.725,32.465,23.702l62.387-9.564Z"/><path class="i" d="M198.859,278.479c-1.276,1.227-2.463,2.504-3.424,3.768.575.766,4.705,4.559,5.873,5.426l.575.427c3.329-4.727,7.713-7.562,12.925-9.644,7.76-3.101,16.039-4.639,24.322-4.366,8.218.271,17.291,2.853,23.418,8.699,5.008-5.744,14.357-10.202,21.574-12.004,7.122-1.779,14.538-1.84,21.826-1.161,4.759.443,9.072,1.807,12.596,3.594.105-.104.165-.163.165-.163,1.277-1.213,3.83-3.767,6.001-6.065-7.852-5.937-12.255-6.824-21.514-7.725-7.046-.686-15.052-.917-21.942.804-6.889,1.721-15.724,4.594-20.619,10.04-5.511-3.885-13.223-6.087-21.506-6.36-8.283-.273-16.562,1.265-24.322,4.366-3.415,1.365-7.065,3.101-9.989,5.323-1.865,1.417-4.015,3.171-5.961,5.042Z"/><path class="i" d="M275.177,293.09c-.291-.235-.584-.466-.88-.695-3.776-2.917-6.515-3.374-10.395-1.205,0,0-1.01.877-2.083,1.809-1.587-1.684-2.934-3.08-3.508-3.578-1.796-1.557-4.323-2.103-6.219-1.398-2.453.913-3.48,2.254-3.48,4.308,0,0-.099.743-.233,1.746-1.301-1.376-2.472-2.562-3.366-3.363-.756-.678-4.443-2.495-6.897-.651-2.164,1.626-2.498,3.802-1.245,5.713.143.218.242.457.36.684l-.549-.287c-4.234-2.212-7.48,1.23-7.898,2.846-.316,1.219-.316,3.412.632,5.245,1.589,3.073,8.534,10.78,12.283,14.741,8.588,6.075,22.293,1.844,33.271-.708,1.154-.268,3.242-1.058,4.35-1.871,4.106-2.85,6.219-6.353,9.574-10.058,1.156-1.277,2.98-3.031,3.766-4.564,1.092-2.133,1.993-4.454,1.384-6.772-.312-1.187-.895-2.369-1.919-3.045-1.633-1.077-3.818-.564-5.629.176-2.703,1.104-5.232,2.632-7.459,4.512-1.183-1.296-2.488-2.476-3.859-3.583Z"/><path class="h" d="M278.107,314.353c-2.316,1.599-5.263,1.98-7.942,2.626-3.223.778-6.453,1.542-9.725,2.089-5.552.929-11.859,1.369-16.86-1.682-2.644-1.613-5.059,2.537-2.423,4.145,5.93,3.617,13.147,3.323,19.759,2.295,3.479-.541,6.91-1.347,10.33-2.172,3.141-.757,6.566-1.282,9.283-3.157,1.065-.735,1.55-2.105.861-3.284-.617-1.055-2.212-1.601-3.284-.861h0Z"/><path class="h" d="M282.716,297.408c-2.437-3.239-5.557-6.28-9.059-8.36-1.603-.953-3.422-1.606-5.304-1.612-2.015-.006-3.918.728-5.662,1.682-1.137.622-1.502,2.188-.861,3.284.671,1.147,2.143,1.485,3.284.861.724-.396,1.041-.569,1.802-.796.343-.102.696-.193,1.052-.24-.422.055.354.007.498.01.058.001.655.045.354.011-.26-.03.194.04.241.05.305.065.605.152.899.255.102.036.503.211.224.082.156.072.31.149.463.229.366.191.721.404,1.068.628,2.544,1.646,5.105,4.011,6.857,6.34.778,1.034,2.073,1.569,3.284.861,1.019-.596,1.645-2.242.861-3.284h0Z"/><path class="h" d="M271.656,299.944c-2.628-2.473-4.982-5.278-7.45-7.907-1.224-1.305-2.438-2.628-3.725-3.872-2.148-2.076-5.044-3.2-8.033-2.703-3.493.58-6.158,3.305-6.237,6.869-.069,3.09,4.731,3.089,4.8,0,.014-.651-.044-.585.288-1.087-.201.304.329-.327.431-.404-.131.1.562-.307.685-.365,1.098-.514,2.166-.459,3.296.081,1.577.754,2.817,2.455,3.992,3.695,2.848,3.01,5.541,6.245,8.56,9.086,2.248,2.116,5.649-1.272,3.394-3.394h0Z"/><path class="h" d="M234.13,313.253c-8.802-6.96-18.29-13.067-27.322-19.722-1.085-.799-2.165-1.605-3.233-2.426-.282-.217.305.238.034.026-.118-.093-.237-.185-.355-.278-.196-.154-.392-.31-.586-.466-.339-.273-.674-.55-1.003-.836l.375,2.908c1.803-3.403,4.24-6.369,7.443-8.543,3.468-2.353,7.432-3.86,11.43-5.045,8.858-2.627,18.619-3.431,27.609-.972,4.546,1.244,8.875,3.341,12.33,6.586.902.847,2.511.996,3.394,0,5.101-5.756,12.838-9.408,20.186-11.303,4.77-1.23,9.686-1.627,14.601-1.55,4.722.074,9.449.421,13.966,1.883,3.871,1.253,7.655,3.228,10.527,6.151v-3.394c-3.457,3.448-7.154,6.67-10.783,9.934-4.713,4.239-9.449,8.452-14.189,12.66-1.81,1.607-3.623,3.212-5.431,4.822-2.312,2.058,1.093,5.443,3.394,3.394,8.48-7.551,17.013-15.044,25.39-22.71,1.69-1.547,3.39-3.088,5.013-4.706.924-.921.91-2.469,0-3.394-6.605-6.72-16.173-8.917-25.26-9.355-9.999-.482-19.745,1.092-28.769,5.506-4.424,2.164-8.752,4.959-12.039,8.669h3.394c-7.071-6.639-16.977-9.347-26.496-9.431-5.494-.048-11.026.68-16.336,2.083-4.652,1.23-9.386,2.902-13.487,5.463-4.271,2.667-7.677,6.384-10.032,10.829-.472.89-.442,2.198.375,2.908,3.744,3.254,7.919,6.07,11.944,8.957,5.081,3.645,10.197,7.24,15.275,10.889,1.095.787,2.189,1.576,3.275,2.375.433.319.865.639,1.295.962.183.138.364.277.547.415.252.191-.428-.338.129.103,1.016.803,2.403.991,3.394,0,.834-.834,1.022-2.586,0-3.394h0Z"/><path class="h" d="M202.52,285.601c.491.373-.014-.022-.201-.178-.25-.21-.497-.425-.743-.64-.621-.544-1.233-1.099-1.84-1.659-.884-.817-1.853-1.627-2.604-2.574v3.394c5.509-7.119,13.344-11.975,21.796-14.79,8.811-2.935,18.508-4.002,27.667-2.17,4.581.916,8.978,2.521,12.83,5.197.835.58,2.233.362,2.908-.375,2.73-2.976,6.371-4.985,10.094-6.463,3.975-1.578,8.199-2.859,12.42-3.571,4.897-.826,9.965-.733,14.903-.394,4.055.278,8.201.602,12.151,1.609,4.333,1.105,8.052,3.411,11.599,6.076l-.486-3.769c-1.955,2.064-3.944,4.102-6.001,6.065-2.239,2.137,1.158,5.528,3.394,3.394,2.057-1.963,4.046-4.001,6.001-6.065,1.159-1.223.756-2.836-.486-3.769-3.485-2.618-7.201-4.894-11.394-6.182s-8.686-1.66-13.04-2.026c-5.241-.44-10.538-.559-15.764.12-4.668.606-9.279,1.88-13.681,3.539-4.804,1.812-9.587,4.207-13.104,8.043l2.908-.375c-7.826-5.435-17.963-7.092-27.315-6.655-9.901.463-20.344,3.232-28.796,8.522-4.431,2.773-8.796,6.508-11.999,10.647-.867,1.12-.896,2.265,0,3.394,1.729,2.178,4.152,4.125,6.359,5.802,1.033.785,2.685.163,3.284-.861.721-1.232.175-2.497-.861-3.284h0Z"/><path class="h" d="M237.893,294.101c-2.889-1.412-6.086-1.388-8.701.604-2.077,1.582-3.106,3.738-2.988,6.362.12,2.674,1.24,4.826,2.797,6.916,1.603,2.151,3.333,4.206,5.096,6.226,1.912,2.19,3.871,4.341,5.867,6.454,2.126,2.25,5.515-1.148,3.394-3.394-3.635-3.848-7.52-7.995-10.51-12.112-.508-.7-1.075-1.438-1.431-2.233-.303-.676-.419-1.459-.423-2.193,0-.079.023-.771,0-.574.009-.082.217-.878.083-.502-.131.369.166-.274.213-.35.318-.519-.298.29.152-.198.461-.499.607-.606,1.069-.874.762-.442,1.867-.521,2.957.012,1.164.569,2.596.316,3.284-.861.618-1.056.308-2.712-.861-3.284h0Z"/><path class="h" d="M259.974,303.243c-2.471-2.678-4.88-5.412-7.338-8.102-1.214-1.328-2.436-2.651-3.691-3.941-.964-.991-1.943-2.099-3.118-2.846-3.654-2.322-8.744-1.97-11.151,1.933-2.751,4.462,1.317,8.527,3.982,11.788,3.054,3.737,6.189,7.375,9.628,10.767,2.202,2.171,5.598-1.221,3.394-3.394-2.675-2.638-5.195-5.411-7.597-8.298-1.223-1.47-2.426-2.956-3.638-4.434-.582-.71-1.054-1.358-1.502-2.152-.139-.247-.265-.457-.323-.626-.014-.041-.114-.582-.088-.36.024.203.068-.423-.006-.128.302-1.213,1.351-1.865,2.542-1.776.337.025,1.135.233,1.649.444-.278-.114.329.171.453.241.098.056.204.136.307.186.39.188-.277-.323-.093-.072.309.423.838.784,1.212,1.155.512.507,1.014,1.023,1.512,1.543,1.096,1.145,2.171,2.31,3.24,3.48,2.422,2.652,4.797,5.347,7.232,7.986,2.1,2.275,5.487-1.126,3.394-3.394h0Z"/><path class="h" d="M282.03,297.362c1.42-.996,2.911-1.878,4.485-2.609,1.064-.494,2.669-1.287,3.879-.942,1.004.286,1.369,1.605,1.441,2.523.122,1.553-.649,3.238-1.407,4.548-.688,1.188-1.714,2.162-2.646,3.157-1.063,1.135-2.062,2.322-3.048,3.524-2.011,2.449-4.019,4.944-6.625,6.791-1.056.748-1.556,2.095-.861,3.284.611,1.044,2.221,1.614,3.284.861,3.451-2.446,5.952-5.611,8.65-8.813,1.187-1.409,2.494-2.706,3.691-4.104,1.436-1.677,2.475-3.512,3.18-5.609,1.324-3.937.218-9.52-4.328-10.766-4.116-1.128-8.888,1.748-12.115,4.012-1.06.744-1.554,2.099-.861,3.284.613,1.048,2.217,1.609,3.284.861h0Z"/></g><g id="f"><path class="h" d="M178.251,132.04c3.18,1.679,6.605,2.379,10.2,2.355,3.63-.024,7.325-.727,10.236-2.995,1.023-.797.837-2.557,0-3.394-1.01-1.01-2.368-.799-3.394,0,.711-.554.097-.087-.086.03-.208.133-.421.256-.64.371-.152.08-.904.393-.303.164-.293.111-.584.225-.882.321-1.874.602-3.268.715-5.263.703-1.953-.012-3.197-.13-5.022-.676-.323-.097-.638-.212-.957-.322-.104-.036-.204-.089-.309-.12.591.173.172.077.015.003-.396-.186-.786-.381-1.172-.585-1.146-.605-2.61-.291-3.284.861-.634,1.084-.289,2.676.861,3.284h0Z"/><path class="h" d="M187.362,107.842c.451,1.72.884,3.466,1.142,5.227l-.086-.638c.031.241.044.479.02.721l.086-.638c-.017.112-.042.217-.079.324l.242-.573c-.033.076-.068.14-.115.209l.375-.486c-.054.065-.105.115-.171.168l.486-.375c-.132.085-.272.153-.414.219l.573-.242c-.228.095-.454.165-.698.204l.638-.086c-.22.026-.435.024-.655-.001l.638.086c-.247-.034-.489-.094-.736-.128-.67-.09-1.239-.115-1.849.242-.498.291-.973.862-1.103,1.434-.14.614-.11,1.304.242,1.849.312.484.835,1.022,1.434,1.103.537.072,1.059.21,1.605.234.825.036,1.595-.214,2.334-.55.905-.413,1.61-1.211,1.851-2.187.204-.824.114-1.562-.025-2.388-.284-1.684-.674-3.353-1.107-5.004-.318-1.214-1.729-2.072-2.952-1.676-1.25.404-2.018,1.651-1.676,2.952h0Z"/><path class="h" d="M159.455,93.114c-.873,2.837-.304,9.362,5.07,9.917,7.102-.042,7.48-7.931,5.089-11.641-1.958-3.037-7.714-4.3-10.159,1.724Z"/><path class="h" d="M216.332,93.115c.873,2.837.304,9.362-5.069,9.917-7.103-.043-7.481-7.932-5.09-11.641,1.957-3.037,7.713-4.3,10.159,1.724Z"/></g></g></g></svg>